<svg width="581" height="558" xmlns="http://www.w3.org/2000/svg" fill="none">

 <g>
  <title>Layer 1</title>
  <g stroke="null" id="svg_53">
   <path stroke="null" id="svg_1" fill="white" d="m278.55309,287.38977c-14.43915,1.65307 -25.51936,1.45499 -33.24002,-0.59425c-7.72126,-2.04924 -13.8098,-6.40825 -18.26742,-13.07704c-4.8586,-10.19859 -7.55343,-16.04352 -8.08509,-17.5342c-2.60552,-7.30587 -2.89442,-14.48622 -2.39574,-19.31754c0.65093,-6.3101 4.14474,-14.53262 10.48082,-24.66756c0.90267,-7.04592 2.39993,-13.28702 4.49238,-18.7227c2.09185,-5.43627 6.28454,-13.26203 12.57687,-23.47847l0.89848,-33.58308c2.65527,-7.68716 5.1505,-13.13593 7.4869,-16.3457c2.3358,-3.20978 5.03123,-4.89437 8.08509,-5.0526c2.57735,-0.2427 4.97309,0.35155 7.18721,1.78334c2.21412,1.43179 6.40681,5.09721 12.57747,10.99628c5.09596,-8.82569 10.88541,-15.56229 17.36894,-20.20921c6.48293,-4.64692 15.06731,-8.213 25.75312,-10.69885l1.49786,-2.97184l0.18041,-17.48126l-4.97189,-42.55213l-6.58843,0l10.18173,-14.85978c0.90867,-3.27461 1.80714,-5.65161 2.69543,-7.13277c0.88769,-1.48057 2.54678,-3.16516 4.97668,-5.05201c0.04435,-0.54726 2.0421,-0.84468 5.99384,-0.89227c3.95174,-0.04759 10.17753,0.1505 18.6768,0.59484c3.62627,0.82683 6.1257,1.91659 7.4863,3.26926c1.3606,1.35208 2.55937,4.22517 3.59031,8.61869l14.60099,15.47485l-9.20653,0.57343l-0.89908,28.23365c-1.28268,4.84203 -2.48145,8.11069 -3.5963,9.80718c-1.11485,1.69649 -2.90701,2.98433 -5.38846,3.86351l-14.67291,0.89167l-1.79815,17.23737l1.19877,2.37759c7.4923,2.12597 12.58706,3.80997 15.2723,5.05201c6.45536,2.98314 12.29336,7.30289 16.77076,14.85978c3.13478,5.29054 6.37744,12.59878 10.77692,20.20921c3.87801,6.70091 10.96273,18.48952 21.26613,35.36642l10.17753,8.91551l5.09476,10.10461l12.27538,9.21294l5.68815,-18.42587c-11.5741,-17.43546 -17.36415,-28.53048 -17.36415,-33.28565c0,-1.98737 1.21076,-3.86113 2.39154,-5.0526c1.6543,-1.65902 3.91997,-2.67858 7.78599,-2.37759c2.57735,0.20106 5.07678,1.78572 7.4863,4.75518l34.44059,91.83312c-3.42847,11.14796 -6.4194,19.46923 -8.98476,24.96439c-2.55937,5.49516 -6.35347,10.94333 -11.3763,16.3457c-7.24055,4.03066 -13.33029,6.40825 -18.26921,7.13277c-4.93892,0.72452 -13.02461,0.03153 -24.25706,-2.08017c-3.93196,-1.78691 -6.52729,-3.47151 -7.78599,-5.0526c-4.65721,-5.86278 -6.6112,-13.29891 -8.98476,-17.23737c-3.33257,-5.53145 -5.32852,-10.68279 -5.98784,-15.45403l-15.57199,-50.22561l-67.37852,-2.08076l-6.28873,50.82045c-3.43747,13.81226 -7.13087,23.91687 -11.08021,30.31382c-3.94934,6.39754 -8.94041,10.35979 -14.9732,11.88795z" clip-rule="evenodd" fill-rule="evenodd"/>
   <path stroke="null" id="svg_2" fill="white" d="m282.59413,298.33786c-1.21975,-0.21831 -2.11882,-0.32657 -2.69723,-0.32359c-2.22072,0.00892 -4.03325,-0.10469 -5.09476,-1.78453c-1.47628,-2.33714 -1.07709,-5.11327 1.19877,-8.32781l6.29353,-2.08195l2.99692,0l21.8775,0.89227l6.89291,-0.89227l24.27504,-0.89227c2.59713,1.18969 3.49441,3.46972 2.69723,6.8407c-0.79898,3.37038 -2.99692,5.45234 -6.59322,6.24586l-7.1926,0.32359l-48.55008,220.92842l-31.16795,0c5.33571,-34.70317 9.6309,-60.80847 12.88675,-78.30579c3.25585,-17.49791 10.64805,-65.0384 22.1772,-142.62264zm76.12173,0c-0.04795,-0.70192 -1.948,-0.81018 -5.69414,-0.32359c-3.19472,-1.58645 -4.49538,-4.06516 -3.89599,-7.43554c0.59938,-3.37098 2.09784,-5.15551 4.49538,-5.35359l4.49538,0.59484l13.78582,0l13.78582,0.89227l15.28428,-1.48711c4.79507,0.39617 7.1926,2.57746 7.1926,6.54328c0,2.25386 -0.76721,3.42392 -1.79815,4.46133c-0.52146,0.52465 -1.52243,1.1195 -2.99692,1.78453l-4.79507,0.32359l12.28737,221.22585l-32.36672,0c-4.35752,-39.78313 -7.15664,-67.66999 -8.39137,-83.66533c-1.46849,-19.05046 -9.78194,-113.7418 -11.38829,-137.56052z" clip-rule="evenodd" fill-rule="evenodd"/>
   <path stroke="#263E4B" id="svg_3" stroke-width="1.5" d="m282.59413,298.03985l44.65408,0l-48.55008,220.92902l-31.16795,0c5.33571,-34.70317 9.6309,-60.80847 12.88675,-78.30638c3.25585,-17.49732 10.64805,-65.0384 22.1772,-142.62264zm76.12173,0l39.85901,0l12.28737,221.22644l-32.36672,0c-4.35752,-39.78313 -7.15664,-67.66999 -8.39137,-83.66533c-1.46849,-19.05046 -9.78194,-113.7418 -11.38829,-137.56112z" clip-rule="evenodd" fill-rule="evenodd"/>
   <path stroke="null" id="svg_4" fill="#BAD9EA" d="m310.46547,100.92895l-33.78906,0.15763c-16.85767,0.07852 -30.71781,13.21147 -31.57673,29.91944l-0.56642,11.01293c0.52806,-5.66291 1.22694,-9.63289 2.09784,-11.91055c1.38218,-3.61427 2.97834,-5.69384 4.79507,-8.03871c2.74638,-3.54646 5.85718,-6.53852 8.39137,-7.14645c5.79424,-1.38955 12.28737,3.07713 19.47997,13.39885c1.20476,-2.31216 2.20393,-4.09847 2.99692,-5.35954c1.58357,-2.51678 3.26964,-5.23462 6.29353,-8.03931c5.99384,-5.55762 13.28654,-10.22238 21.8775,-13.99429z" clip-rule="evenodd" fill-rule="evenodd"/>
   <path stroke="null" id="svg_5" fill="#BAD9EA" d="m282.89383,285.23703c3.08263,1.11593 8.87687,1.61203 17.38213,1.4883c4.63144,-0.06722 12.96827,-1.43893 20.07935,-1.78631c3.96552,-0.19332 9.95936,-0.19332 17.98151,0l6.89291,-18.16295l6.59322,0l2.09784,18.16295c7.01279,0.43543 12.00566,0.73285 14.98459,0.89345c6.40142,0.34441 11.72394,0.59544 15.88367,0.59544c7.06074,0 12.2514,-0.49669 15.58398,-1.48889l-15.28428,-84.85918l-71.02697,2.67977c-0.92845,12.92238 -4.32455,27.11475 -10.18952,42.5783c-1.24971,3.29603 -1.44991,7.46172 -2.69723,11.61253c-1.90125,6.32497 -3.99489,12.44294 -6.29353,16.67406c-2.18056,4.014 -6.17665,7.88465 -11.98767,11.61253z" clip-rule="evenodd" fill-rule="evenodd"/>
   <path stroke="null" id="svg_6" fill="#263E4B" d="m399.89951,285.1371l-6.86294,-39.72365c-0.04196,-0.2427 0.12587,-0.47409 0.36562,-0.51573c0.24575,-0.04164 0.47951,0.12194 0.52146,0.36464l6.82698,39.52794l0.971,0c3.80609,0 6.89291,3.06582 6.89291,6.84784c0,3.78261 -3.08683,6.84843 -6.89291,6.84843l-47.29137,0c-3.37453,0 -6.10772,-2.71784 -6.10772,-6.07097c0,-0.28077 0.01798,-0.56094 0.05994,-0.83873l0.35963,-2.55723c0.32367,-2.30085 2.11582,-4.10085 4.38749,-4.47144l-1.71424,-17.32541l-5.87396,0l-6.58843,17.35932c1.83771,0.42174 3.14197,2.12597 2.99212,4.05148c-0.01199,0.16656 -0.03596,0.33133 -0.07193,0.49431l-0.55143,2.60185c-0.82655,3.93667 -4.32096,6.75683 -8.36919,6.75683l-54.82503,0c-2.5264,0 -4.5745,-2.03496 -4.5745,-4.5446c0,-0.47528 0.07492,-0.94699 0.22237,-1.39907c0.39979,-1.22776 0.89848,-2.81361 1.49606,-4.75696c0.07253,-0.23615 0.32367,-0.3688 0.56102,-0.29683c0.23736,0.07198 0.37102,0.32181 0.29849,0.55796c-0.59878,1.94752 -1.09867,3.53813 -1.50026,4.77064c-0.11868,0.36345 -0.17862,0.74236 -0.17862,1.12425c0,2.01652 1.64531,3.65115 3.67542,3.65115l54.82503,0c3.62267,0 6.74966,-2.52333 7.4917,-6.04658l0.54844,-2.60125c0.02637,-0.12551 0.04435,-0.25221 0.05394,-0.3801c0.12647,-1.6269 -1.09627,-3.04857 -2.73199,-3.18003c-3.71858,-0.07257 -6.34987,-0.10945 -7.89089,-0.11124c-4.17231,-0.00476 -15.93821,0.67336 -18.39988,1.00112c-5.58805,0.74296 -8.54721,0.85003 -13.38064,0.68823c-0.15704,-0.00535 -0.15704,-0.00535 -0.31468,-0.01071c-1.72682,-0.05829 -2.55278,-0.07852 -3.65444,-0.07852c-3.99789,0 -6.98402,-0.09934 -8.96618,-0.2998c-2.32561,-0.23496 -3.37873,-0.56391 -3.25945,-1.40026l0.89068,0.12551c0.00899,-0.06484 -0.00899,-0.11302 -0.02098,-0.13503c0.06294,0.04818 0.1924,0.10767 0.38301,0.16715c0.44115,0.138 1.14422,0.25757 2.09784,0.35393c1.945,0.19689 4.90536,0.29564 8.87507,0.29564c1.11485,0 1.9486,0.02022 3.68501,0.07852c0.15704,0.00535 0.15704,0.00535 0.31408,0.01071c4.78668,0.16001 7.69729,0.05473 13.23139,-0.6811c2.50423,-0.33311 14.30969,-1.01302 18.52036,-1.00826c1.50565,0.00119 4.03985,0.03688 7.60318,0.10529l6.78203,-17.86791c0.06593,-0.17369 0.23376,-0.28909 0.41957,-0.28909l6.59322,0l3.89599,0c0.24575,0 0.44954,0.19987 0.44954,0.44673c0,0.24686 -0.20379,0.44673 -0.44954,0.44673l-3.39851,0l1.72023,17.37478c1.98396,0.32478 5.95188,0.49015 11.8678,0.49015c2.22371,0 13.09653,0.60317 16.22532,0.89524c3.56633,0.33252 9.49424,0.05175 17.76573,-0.84587zm0.49149,0.54607l0.02997,0.29504c-8.55321,0.94045 -14.67291,1.23965 -18.37111,0.89405c-3.09881,-0.28969 -13.94766,-0.89108 -16.1414,-0.89108c-6.32949,0 -10.44126,-0.18678 -12.37727,-0.56689l0.00599,-0.01963c-2.00794,0.20701 -3.62627,1.75062 -3.90798,3.7487l-0.35963,2.55664c-0.02997,0.23734 -0.04795,0.47647 -0.04795,0.7156c0,2.85941 2.3316,5.17752 5.20864,5.17752l47.29137,0c3.3086,0 5.99384,-2.66609 5.99384,-5.95498c0,-3.28889 -2.68524,-5.95498 -5.99384,-5.95498l-1.33063,0z"/>
   <path stroke="null" id="svg_7" fill="#263E4B" d="m348.05282,77.25775l-1.74421,18.29976c14.20539,4.79741 23.29205,8.9631 27.28395,12.53335c5.18467,4.63026 18.46701,31.39048 25.27002,48.95264c2.05589,5.30362 5.24461,8.6633 12.97666,14.8812l0.64733,0.52287c7.76801,6.24467 10.93875,9.61624 12.88675,14.97518c2.99692,8.27368 9.00274,10.26164 18.26322,5.999c0.22777,-0.1035 0.49749,-0.00595 0.59938,0.21771c0.1019,0.22366 0.00599,0.48956 -0.22177,0.59306c-9.71601,4.47144 -16.29724,2.29074 -19.49196,-6.50699c-1.86408,-5.15372 -4.9569,-8.43964 -12.59904,-14.58378l-0.65333,-0.52287c-7.85193,-6.31367 -11.11257,-9.75603 -13.24638,-15.25476c-6.74307,-17.40809 -20.00143,-44.11418 -25.03026,-48.60882c-3.90798,-3.49114 -13.02461,-7.65861 -27.30792,-12.46494c-0.1978,-0.06662 -0.32367,-0.25935 -0.30569,-0.46517l1.77418,-18.56744l-5.22063,0c-0.24575,0 -0.44954,-0.19987 -0.44954,-0.44673c0,-0.24627 0.20379,-0.44673 0.44954,-0.44673l5.70613,0c0.00599,0 0.00599,0 0.01199,0l9.97974,0c6.18564,0 9.77595,-2.49834 11.65202,-7.54856c1.50445,-4.05802 1.87008,-8.74836 1.87008,-18.77504l0,-6.8288c0,-0.09458 0,-0.17131 0,-0.34501c0.00599,-3.31982 -0.14985,-5.23284 -0.86911,-8.14936c-0.01199,-0.01725 -0.03596,-0.03866 -0.05994,-0.06365c-0.07193,-0.0696 -0.16783,-0.16061 -0.2937,-0.27244l-42.85773,0c-0.24814,0 -0.44954,-0.19987 -0.44954,-0.44613c0,-0.24686 0.20139,-0.44673 0.44954,-0.44673l43.03155,0c0.10789,0 0.21578,0.03985 0.29969,0.11183c0.52746,0.46695 0.68929,0.62399 0.73724,0.82326c0.75522,3.04619 0.91706,5.02821 0.91106,8.4444c0,0.17369 0,0.24983 0,0.34382l0,6.8288c0,10.1397 -0.37162,14.88893 -1.93002,19.08436c-2.00194,5.39999 -5.9279,8.1327 -12.49116,8.1327l-9.57815,0zm131.30698,160.21275l0.86311,0.25221c-7.52826,25.40814 -15.53003,40.21974 -24.08923,44.45919c-13.48014,6.67474 -29.9572,7.18809 -43.3714,0.65135c-1.77418,-0.86371 -3.16475,-2.07065 -4.57929,-3.92478c-1.00696,-1.32174 -1.99595,-2.91235 -3.58431,-5.67362c-0.41357,-0.72214 -1.99595,-3.50363 -2.22971,-3.9111c-0.99498,-1.73932 -1.8521,-3.21929 -2.76316,-4.76232c-1.25271,-2.11288 -3.03288,-6.77765 -5.3525,-14.02641l0.85112,-0.27065c2.30163,7.18392 4.06982,11.80883 5.27458,13.84379c0.91706,1.54719 1.78017,3.03192 2.77515,4.77481c0.23376,0.40925 1.81014,3.18896 2.22371,3.90931c1.57039,2.72914 2.54738,4.29477 3.52438,5.57725c1.33063,1.74884 2.61931,2.86358 4.25562,3.66186c13.15647,6.40944 29.33983,5.90561 42.57422,-0.64897c8.25951,-4.08955 16.16538,-18.73519 23.6277,-43.91194z"/>
   <path stroke="null" id="svg_8" fill="#BAD9EA" d="m356.01863,99.73808l5.39445,2.08433c3.7941,11.51319 6.69512,21.33882 8.69106,29.47747c1.99595,8.13805 3.29661,20.24669 3.89599,36.3253l-7.4923,-2.08433c0.59938,-12.90215 -0.49749,-24.31601 -3.29661,-34.24097c-1.21675,-4.32332 -3.61428,-14.84372 -7.1926,-31.5618zm-45.85285,1.19088l5.09476,-2.08433c1.19877,8.80011 1.79815,15.74789 1.79815,20.84272c0,5.09483 0,10.2557 0,15.48318l-7.79199,11.0165c1.19877,-3.57263 1.79815,-11.61194 1.79815,-24.11793c0,-12.50539 -0.29969,-19.55191 -0.89908,-21.14014z" clip-rule="evenodd" fill-rule="evenodd"/>
   <path stroke="null" id="svg_9" fill="#263E4B" d="m355.88078,99.83087l-0.17382,-0.80839l6.36545,2.46027l0.06593,0.20046c3.80009,11.52331 6.70111,21.35964 8.70305,29.51078c2.00794,8.17374 3.3086,20.30855 3.90798,36.41513l0.02398,0.6115l-8.43333,-2.34547l0.01798,-0.35453c0.59938,-12.85754 -0.49749,-24.2244 -3.27863,-34.10059c-1.22274,-4.33522 -3.62028,-14.86038 -7.1986,-31.58916zm8.06171,31.34825c2.78713,9.88273 3.89599,21.2252 3.33257,34.02742l6.55126,1.82379c-0.60538,-15.7467 -1.89405,-27.62453 -3.86003,-35.62458c-1.98396,-8.07916 -4.85501,-17.82746 -8.61314,-29.24369l-4.42345,-1.7078c3.48242,16.23863 5.82002,26.48481 7.01279,30.72485zm-53.89778,-30.09313l-0.15284,-0.40509l6.03579,-2.4692l0.07792,0.57343c1.20176,8.81796 1.80235,15.78417 1.80235,20.9022l0,15.62416l-9.63869,13.62846l0.971,-2.89391c1.17779,-3.51077 1.77478,-11.52093 1.77478,-23.97635c0,-12.40724 -0.30029,-19.47398 -0.87031,-20.9837zm1.76938,20.9837c0,10.3247 -0.40638,17.6151 -1.22934,21.90154l6.3241,-8.94169l0,-15.3422c0,-4.9604 -0.57181,-11.69819 -1.71663,-20.20862l-4.1813,1.71017c0.54364,2.23602 0.80317,9.13799 0.80317,20.88079z"/>
   <path stroke="null" id="svg_10" fill="#263E4B" d="m347.4954,101.05566l0.86311,-0.2534l40.77008,136.71049c2.32561,12.08305 10.72297,18.09752 25.32995,18.09752c14.61297,0 26.62462,-9.69 36.05293,-29.15566l0.80917,0.38724c-9.56017,19.74642 -21.85353,29.66187 -36.8621,29.66187c-15.01456,0 -23.80153,-6.29225 -26.20505,-18.7804l-40.75809,-136.66766zm22.16521,110.56831l0.88709,0.13622c-4.62724,29.77489 -13.31831,44.74353 -26.21704,44.74353c-10.43347,0 -17.37553,-32.24944 -20.2286,-93.91983c-0.53825,-11.628 -0.83794,-31.48328 -0.89967,-59.56941l0.89908,-0.00238c0.06174,28.07423 0.36143,47.9188 0.89848,59.53074c2.8165,60.86736 9.74778,93.06742 19.33072,93.06742c12.27538,0 20.76265,-14.60757 25.32995,-43.98629z"/>
   <path stroke="null" id="svg_11" fill="#263E4B" d="m414.44655,196.97773l31.40171,-3.27521l1.85809,17.53777l-31.40171,3.2758l-1.85809,-17.53836zm-29.12405,-31.43986l-2.95496,-27.86604c1.18678,-3.01288 4.30357,-4.78314 9.36237,-5.31076c5.0528,-0.52703 8.47529,0.56094 10.26744,3.26391l2.94897,27.86544l-19.62382,2.04745zm82.42724,-8.59846l-19.62382,2.04745l-2.95496,-27.86604c1.18678,-3.01288 4.30357,-4.78314 9.36237,-5.31017c5.0528,-0.52763 8.47529,0.56034 10.26744,3.26331l2.94897,27.86544z" clip-rule="evenodd" fill-rule="evenodd"/>
   <path stroke="null" id="svg_12" fill="white" d="m382.85304,196.47985l-4.56131,-43.06548c1.91203,-4.66536 6.91089,-7.41948 15.00257,-8.26297c8.08569,-0.84408 13.55206,0.8185 16.39914,4.98776l4.56131,43.06488l-31.40171,3.2758zm94.20513,-9.82681l-31.40171,3.2758l-4.56131,-43.06548c1.91203,-4.66476 6.91089,-7.41948 15.00257,-8.26297c8.08569,-0.84408 13.55206,0.8185 16.39914,4.98776l4.56131,43.06488z" clip-rule="evenodd" fill-rule="evenodd"/>
   <path stroke="#263E4B" id="svg_13" stroke-linejoin="round" stroke-linecap="round" stroke-width="1.5" fill="white" d="m382.65524,196.60001l-4.56131,-43.06548c1.91203,-4.66476 6.91089,-7.41948 15.00257,-8.26297c8.08569,-0.84349 13.55206,0.8185 16.39914,4.98776l4.56131,43.06548l-31.40171,3.27521zm94.20513,-9.82622l-31.40171,3.27521l-4.56131,-43.06548c1.91203,-4.66476 6.91089,-7.41948 15.00257,-8.26297c8.08569,-0.84349 13.55206,0.8191 16.39914,4.98776l4.56131,43.06548z" clip-rule="evenodd" fill-rule="evenodd"/>
   <path stroke="null" id="svg_14" fill="white" d="m381.88803,244.21068l-5.28057,-49.82052c2.73319,-5.45115 9.65607,-8.75669 20.78063,-9.91664c11.11857,-1.15994 18.58689,0.64422 22.39897,5.41248l5.27458,49.82111l-43.17361,4.50356zm105.97703,-11.05457l-43.17361,4.50356l-5.28057,-49.82052c2.73319,-5.45115 9.65607,-8.75669 20.78063,-9.91664c11.11857,-1.15994 18.58689,0.64422 22.39897,5.41308l5.27458,49.82052z" clip-rule="evenodd" fill-rule="evenodd"/>
   <path stroke="null" id="svg_15" fill="#263E4B" d="m381.79213,244.6699c-0.24575,0.02558 -0.46752,-0.15228 -0.49149,-0.39795l-5.27458,-49.82052c-0.01199,-0.08447 0.00599,-0.16953 0.04196,-0.24567c2.81111,-5.61711 9.87185,-8.98749 21.13427,-10.16171c11.25643,-1.17422 18.8686,0.66503 22.80056,5.57904c0.05394,0.06662 0.08391,0.14693 0.0959,0.23139l5.27458,49.82052c0.02398,0.24567 -0.15584,0.46517 -0.40159,0.49075l-43.1796,4.50415zm42.64015,-5.34586l-5.21464,-49.2459c-3.72217,-4.54817 -11.01667,-6.28333 -21.92545,-5.14599c-10.90279,1.13794 -17.67582,4.33998 -20.36106,9.55675l5.21464,49.2459l42.28652,-4.41076zm63.74445,-6.20005c0.02398,0.24567 -0.15584,0.46517 -0.40159,0.49075l-43.1796,4.50415c-0.24575,0.02558 -0.46752,-0.15228 -0.49149,-0.39795l-5.27458,-49.82052c-0.01199,-0.08447 0.00599,-0.16953 0.04196,-0.24567c2.8171,-5.61711 9.87784,-8.98749 21.13427,-10.16171c11.25643,-1.17422 18.8686,0.66503 22.80056,5.57904c0.05394,0.06662 0.08391,0.14693 0.0959,0.23139l5.27458,49.82052zm-0.94103,-0.35096l-5.21464,-49.2459c-3.72217,-4.54817 -11.01667,-6.28333 -21.91946,-5.14599c-10.90878,1.13794 -17.67582,4.33998 -20.36706,9.55675l5.21464,49.2459l42.28652,-4.41076z"/>
   <path stroke="null" id="svg_16" fill="#263E4B" d="m404.10719,249.28113c-11.92174,1.24322 -21.93145,-1.02016 -22.36301,-5.05557c-0.42556,-4.03601 8.89485,-8.31591 20.8166,-9.55973c11.92174,-1.24322 21.93744,1.02016 22.36301,5.05557c0.43156,4.03601 -8.88886,8.31591 -20.8166,9.55973zm62.80942,-6.55101c-11.92774,1.24382 -21.93744,-1.02016 -22.36301,-5.05557c-0.43156,-4.03601 8.88886,-8.31591 20.8106,-9.55973c11.92774,-1.24322 21.93744,1.02016 22.36301,5.05557c0.43156,4.03601 -8.88886,8.31591 -20.8106,9.55973z" clip-rule="evenodd" fill-rule="evenodd"/>
   <path stroke="null" id="svg_17" fill="#263E4B" d="m371.13509,204.90045c3.77012,-0.39379 6.50331,-3.74632 6.10772,-7.48967c-0.39559,-3.74275 -3.77612,-6.45822 -7.54624,-6.06502c-3.77012,0.39319 -6.50331,3.74573 -6.10772,7.48908c0.39559,3.74275 3.77612,6.45881 7.54624,6.06562zm-0.0959,-0.8887c-3.27863,0.34203 -6.20961,-2.01771 -6.55726,-5.27031c-0.34165,-3.25201 2.03191,-6.16615 5.31054,-6.50759c3.27263,-0.34144 6.20961,2.01771 6.55726,5.27031c0.34165,3.25201 -2.03191,6.16615 -5.31054,6.50759z"/>
   <path stroke="null" id="svg_18" fill="#263E4B" d="m227.23446,212.26997l6.05677,-2.18843c0.23316,-0.08387 0.4909,0.03569 0.57601,0.26708c0.08451,0.23199 -0.03596,0.48837 -0.26912,0.57283l-5.38486,1.94514l5.45979,3.20561c0.21398,0.12492 0.28471,0.39914 0.15884,0.6115c-0.12647,0.21236 -0.40219,0.28255 -0.61617,0.15704l-6.09633,-3.57917l-0.11448,0.04164c-0.05275,0.01903 -0.10729,0.02796 -0.16063,0.02677c-11.00648,14.56236 -13.55266,28.92902 -7.66851,43.15292c5.7355,13.86699 8.31345,18.81609 12.65898,23.08766c5.00965,4.92471 11.90855,7.48373 23.83629,8.79536c22.49427,2.47336 35.63216,-4.93304 41.48334,-21.43994c3.65624,-10.31399 5.74749,-17.53658 6.27195,-21.64397c0.03117,-0.24448 0.25594,-0.41758 0.50228,-0.38665c0.24635,0.03093 0.42077,0.25459 0.3896,0.49907c-0.53525,4.18889 -2.63969,11.45728 -6.31571,21.82778c-5.99563,16.91556 -19.53571,24.54859 -42.43037,22.03181c-12.11115,-1.33185 -19.19227,-3.95928 -24.36974,-9.04876c-4.46481,-4.38875 -7.07333,-9.39734 -12.85858,-23.3827c-6.04359,-14.61114 -3.37813,-29.38646 7.96521,-44.27063c1.22094,-15.11319 6.74247,-29.25797 16.55977,-42.4278c9.78734,-13.12879 19.87317,-22.99962 30.26168,-29.60833c7.02178,-18.48298 17.2167,-30.86107 30.58955,-37.10693c6.66275,-3.11163 11.66341,-5.18049 15.01037,-6.20779c2.24169,-0.68764 3.83725,-0.94104 4.72974,-0.66147l1.54102,-28.0897c0.01319,-0.24627 0.22537,-0.43483 0.47351,-0.42293c0.24755,0.01487 0.43755,0.22545 0.42436,0.47171l-1.60335,29.22109c-0.03177,0.57819 -0.89848,0.55499 -0.89848,-0.02439c0,-0.54666 -1.38697,-0.5657 -4.40127,0.35929c-3.29841,1.01242 -8.2655,3.06701 -14.89349,6.16258c-13.17445,6.15306 -23.23691,18.39434 -30.18316,36.75181c-0.03416,0.09101 -0.0971,0.16775 -0.17862,0.2195c-10.33278,6.54566 -20.38384,16.36712 -30.1496,29.46735c-9.64229,12.93487 -15.09248,26.80365 -16.35658,41.61406z"/>
   <path stroke="null" id="svg_19" fill="white" d="m323.95161,94.08112l-4.21067,10.58108c-0.24275,0.6109 0.05874,1.30211 0.67491,1.54362c0.24215,0.09458 0.50948,0.10886 0.76062,0.03985l17.98331,-4.95148l11.90196,4.20673c0.62336,0.22069 1.30666,-0.10231 1.52843,-0.72155c0.13786,-0.36999 0.07792,-0.78162 -0.15584,-1.09927l-6.60521,-9.00355c-1.22274,1.05823 -3.84804,1.58764 -7.87171,1.58764c-4.02306,0 -8.69166,-0.72749 -14.0058,-2.18308z" clip-rule="evenodd" fill-rule="evenodd"/>
   <path stroke="null" id="svg_20" fill="#263E4B" d="m338.87986,101.61957l-17.28323,4.75815c-0.34524,0.09517 -0.71267,0.07614 -1.04592,-0.05473c-0.84693,-0.33252 -1.2617,-1.28427 -0.92725,-2.12538l4.21007,-10.5787c0.08391,-0.21236 0.31588,-0.32716 0.53705,-0.26649c5.27817,1.44606 9.90781,2.16761 13.88652,2.16761c3.92177,0 6.45716,-0.51216 7.57801,-1.47819c0.1978,-0.17191 0.50348,-0.138 0.65932,0.07376l6.59921,9.00058c0.31767,0.43721 0.40159,1.0041 0.22177,1.51328c-0.30569,0.85241 -1.24672,1.29735 -2.10983,0.99398l-11.42485,-4.03958c0.02038,0.16953 0.04376,0.36821 0.07013,0.59663c0.11268,0.969 0.28111,2.47038 0.50648,4.50594c0.44954,4.06992 1.12624,10.27354 2.02532,18.61087c0.02398,0.24508 -0.15584,0.46517 -0.40159,0.49134c-0.24575,0.02617 -0.46752,-0.15109 -0.49749,-0.39617c-0.89668,-8.33673 -1.57098,-14.53976 -2.02052,-18.60849c-0.22417,-2.03377 -0.3932,-3.53456 -0.50528,-4.50118c-0.02997,-0.25995 -0.05634,-0.48123 -0.07792,-0.66325zm-0.01139,-5.21023c0.0989,0.38248 0.193,0.80899 0.28291,1.27475c0.14745,0.75843 0.26253,1.4883 0.39799,2.45135l0.05754,0.40806c0.0018,0.0113 0.003,0.02201 0.0048,0.03272l11.89956,4.20554c0.3896,0.138 0.81516,-0.06424 0.95302,-0.45149c0.08391,-0.23139 0.04795,-0.48896 -0.0959,-0.68764l-6.33549,-8.63356c-1.35461,0.89821 -3.73416,1.35267 -7.16443,1.40026zm-0.14205,4.32511c-0.003,-0.02082 -0.00599,-0.04283 -0.00959,-0.06603l-0.05754,-0.40866c-0.13366,-0.94937 -0.24695,-1.66675 -0.3908,-2.40733c-0.10489,-0.54131 -0.21458,-1.02432 -0.32906,-1.44071c-3.8942,-0.03629 -8.3662,-0.73404 -13.4184,-2.09206l-4.06142,10.20632c-0.15224,0.38248 0.03656,0.81494 0.42137,0.96603c0.15164,0.05948 0.31887,0.06841 0.47591,0.02498l17.36954,-4.78254z"/>
   <path stroke="null" id="svg_21" fill="white" d="m277.49937,196.29783c24.86963,-39.38399 39.15474,-61.12016 42.85593,-65.20793c2.88843,-3.19015 7.83574,-3.45247 11.05084,-0.58592c2.40533,2.1456 3.23367,5.53859 2.08346,8.53838l-8.93861,23.31191" clip-rule="evenodd" fill-rule="evenodd"/>
   <path stroke="null" id="svg_22" fill="#263E4B" d="m277.77569,196.74455c24.84146,-39.33878 39.13556,-61.08864 42.80918,-65.14606c2.7242,-3.00872 7.3868,-3.25379 10.41489,-0.54726c2.26627,2.02485 3.04487,5.22629 1.95998,8.05596l-8.93321,23.29764l0.84034,0.31765l8.93261,-23.29764c1.21735,-3.17468 0.34405,-6.76575 -2.19794,-9.03746c-3.39731,-3.03668 -8.62873,-2.76186 -11.68498,0.61388c-3.72817,4.11751 -18.00429,25.8394 -42.90268,65.2686l0.76182,0.47469z"/>
   <path stroke="null" id="svg_23" fill="#263E4B" d="m333.05145,51.51947c-0.69948,-0.20463 -1.44032,-0.31467 -2.20693,-0.31467c-4.30357,0 -7.79199,3.46615 -7.79199,7.74129c0,3.63271 2.51861,6.68128 5.91532,7.51585l-0.35244,7.20296c-0.0941,1.92134 -1.70465,3.42273 -3.64245,3.39596l-9.24849,-0.12908c-0.59339,-0.00833 -1.18258,-0.09577 -1.752,-0.26054c-3.49561,-1.01064 -5.50414,-4.64275 -4.48579,-8.11247l10.16435,-34.62346l1.20356,0l0.0048,-0.00654l1.40975,0.00654l5.27877,0l0.0012,0.02498l12.53731,0.06008c-1.44751,6.60752 -2.74757,11.02304 -3.90019,13.24597c-0.82235,1.58764 -1.86768,3.00574 -3.13478,4.25313zm42.597,-17.58417c1.17479,4.96218 -0.64733,7.44387 -5.47837,7.44387c-4.83703,0 -12.08357,-2.48169 -21.74564,-7.44387l27.22401,0z" clip-rule="evenodd" fill-rule="evenodd"/>
   <path stroke="null" id="svg_24" fill="white" d="m264.72471,206.69152l40.69336,-35.98446c5.92371,-5.23879 13.60841,-8.08749 21.54245,-7.98577l46.33835,0.59187c6.32949,0.0809 11.50217,5.03475 11.80786,11.30916c0.2937,5.93892 -4.32156,10.98735 -10.3094,11.27585c-0.13186,0.00654 -0.26972,0.01071 -0.40758,0.01249l-39.22906,0.42591c-2.39993,0.02558 -4.32455,1.97785 -4.29818,4.35961c0,0.00178 0,0.00297 0,0.00476c0.02937,2.4115 1.97197,4.36972 4.40127,4.43575l40.49256,1.10106c5.52032,0.1505 9.9198,4.61717 9.94977,10.09509c0.02997,5.3982 -4.35752,9.79707 -9.79393,9.82562c-0.01798,0 -0.03596,0 -0.05394,0l-38.59971,0c-2.37356,0 -4.29818,1.91004 -4.29818,4.26622c0,0.01725 0,0.0345 0,0.05116c0.03117,2.59114 1.69626,4.88366 4.16212,5.7337l24.71619,8.51518c4.2796,1.47343 6.53928,6.10904 5.0528,10.35385c-0.06593,0.18857 -0.13786,0.37416 -0.21578,0.55737c-1.97797,4.54698 -7.13267,6.83535 -11.8678,5.26734l-40.18088,-13.30665l-21.73785,14.39819c-11.14854,7.38439 -26.21764,4.40125 -33.65779,-6.66284c-0.70008,-1.04038 -1.31685,-2.13311 -1.8455,-3.26926c-1.89345,-4.06694 -2.48385,-9.89344 -1.77178,-17.48007c0.64733,-6.89305 3.90259,-13.28583 9.11063,-17.89111z" clip-rule="evenodd" fill-rule="evenodd"/>
   <path stroke="null" id="svg_25" fill="#263E4B" d="m263.10577,248.98132l7.57981,-4.84143c-2.60073,-2.46741 -4.70097,-5.49873 -6.47514,-9.02318c-2.57076,-5.10852 -1.72563,-14.87763 2.48744,-29.36921l-1.43552,1.2694c-5.13132,4.53747 -8.33863,10.84043 -8.97397,17.63592c-0.70128,7.50098 -0.11748,13.24419 1.73522,17.2225c0.51607,1.10938 1.11785,2.17653 1.79995,3.19312c0.9704,1.44666 2.07327,2.75234 3.28223,3.91288zm0.6803,0.62756c7.89928,7.00785 19.84799,8.13092 29.06951,2.02306l2.09724,-1.38896c-8.33323,1.49484 -15.11166,0.27422 -20.54328,-3.18896c-1.08249,-0.69002 -2.09305,-1.45439 -3.04007,-2.28896l-7.5834,4.84381zm3.39071,-45.48054c0.0006,-0.00238 0.0012,-0.00476 0.0024,-0.00773c0.05095,-0.17013 0.1948,-0.28731 0.36023,-0.31348l37.81212,-33.43674c6.00642,-5.31076 13.79422,-8.19873 21.83375,-8.09582l46.35933,0.59187c6.55726,0.08387 11.92174,5.22392 12.23941,11.73448c0.30569,6.18459 -4.49538,11.44241 -10.72297,11.7434c-0.13786,0.00714 -0.28171,0.0113 -0.42556,0.01249l-39.24525,0.4265c-2.14879,0.0232 -3.87202,1.77263 -3.84864,3.90812l0,0.00416c0.02637,2.17177 1.77418,3.93489 3.95953,3.99437l40.50695,1.10165c5.75408,0.15644 10.34536,4.82002 10.37533,10.53884c0.02997,5.64506 -4.54932,10.24499 -10.23148,10.27473l-0.05394,0l-38.61469,0c-2.12302,0 -3.84385,1.71017 -3.84385,3.81949c0,0.0232 0,0.0232 0,0.0458c0.02877,2.40257 1.57158,4.52854 3.85584,5.31552l24.72697,8.51935c4.50737,1.55195 6.89291,6.43859 5.32852,10.91419c-0.07193,0.20046 -0.14985,0.39855 -0.23376,0.59365c-2.07387,4.76053 -7.46233,7.15656 -12.41324,5.51598l-39.98069,-13.23943l-21.56882,14.28576c-11.35892,7.52358 -26.70614,4.47382 -34.27875,-6.81155c-0.70787,-1.05466 -1.33243,-2.16285 -1.86828,-3.31328c-1.92942,-4.14546 -2.5288,-10.03679 -1.81374,-17.68053c0.65633,-7.02094 3.96972,-13.53269 9.27127,-18.22065l2.51202,-2.22115zm0.78879,0.49848c-4.49957,15.04062 -5.46578,25.09347 -2.95077,30.09075c2.48504,4.9378 5.61503,8.86495 9.88024,11.58458c5.55269,3.54051 12.58226,4.65287 21.39021,2.76781c0.12287,-0.02617 0.24515,0 0.34225,0.06424l18.16252,-12.03011l40.39546,13.37803c4.50737,1.49365 9.42231,-0.68823 11.30438,-5.02345c0.07792,-0.17488 0.14985,-0.35215 0.20978,-0.53179c1.40256,-4.00984 -0.73724,-8.38729 -4.77109,-9.77804l-24.72757,-8.51875c-2.64268,-0.91071 -4.42705,-3.36979 -4.46061,-6.1489c0,-0.02796 0,-0.02796 0,-0.05651c0,-2.60244 2.12362,-4.71235 4.74292,-4.71235l38.61469,0l0.04795,-0.00059c5.18467,-0.02677 9.36837,-4.22517 9.3384,-9.37652c-0.02398,-5.23641 -4.23165,-9.50738 -9.50023,-9.65074l-40.50755,-1.10165c-2.66786,-0.07257 -4.80166,-2.22531 -4.83403,-4.87653l0,-0.00535c-0.02877,-2.62802 2.09245,-4.78254 4.73813,-4.81109l39.24884,-0.42591c0.12587,-0.00178 0.25773,-0.00535 0.3896,-0.0119c5.73011,-0.2772 10.14757,-5.11565 9.86586,-10.80771c-0.2937,-6.03885 -5.26858,-10.80712 -11.35233,-10.88445l-46.35873,-0.59246c-7.81536,-0.09993 -15.38618,2.70773 -21.22418,7.87037l-37.98414,33.58902z"/>
   <path stroke="null" id="svg_26" fill="white" d="m467.55195,173.70924l0.00599,1.21051c0.02997,6.17507 5.07678,11.16581 11.30438,11.16581l8.52324,0c-7.04276,0.53774 -11.64003,2.82075 -13.78582,6.84843c-3.37453,6.34341 -0.92904,14.20189 5.46638,17.55264c1.88206,0.98744 3.97991,1.50317 6.10772,1.50317l3.71018,0l-1.01296,0.49372c-7.12667,3.47329 -10.07564,12.02536 -6.57524,19.10221c0.20978,0.4271 0.44354,0.84289 0.69529,1.24679c3.41049,4.70997 10.0217,5.78664 14.76282,2.40495c0.31767,-0.22545 0.62336,-0.46874 0.91106,-0.72809l6.6172,-5.91572c3.65624,-3.26688 5.37048,-8.15947 4.55532,-12.97235c-0.05394,-0.35036 -0.11388,-0.66741 -0.17382,-0.95175c-0.34165,-1.73575 -1.54042,-4.31618 -3.5963,-7.74129c1.40256,-2.77911 1.79815,-6.15366 1.19877,-10.12364c-0.59938,-3.96999 -2.29564,-7.44387 -5.09476,-10.42106c1.36659,-3.46615 1.56439,-7.3368 0.59938,-11.61253c-0.37761,-1.69292 -0.90507,-3.13601 -1.58237,-4.32868c-1.23473,-2.18783 -3.46444,-3.64342 -5.98185,-3.90515l-16.7288,-1.74349c-4.93892,-0.51454 -9.36237,3.04143 -9.87784,7.94235c-0.03596,0.323 -0.04795,0.64838 -0.04795,0.97316z" clip-rule="evenodd" fill-rule="evenodd"/>
   <path stroke="null" id="svg_27" fill="#263E4B" d="m489.00988,211.24565l15.93761,-4.9836c1.28268,-2.65895 1.64831,-5.88538 1.0729,-9.68881c-0.5874,-3.86946 -2.2357,-7.25233 -4.9569,-10.15874l0,0.11778l-13.81579,-0.26887c-6.69512,0.577 -11.02866,2.77911 -13.05458,6.58135c-3.25465,6.12272 -0.90507,13.70995 5.26259,16.94649c1.81613,0.95532 3.84205,1.45439 5.89794,1.45439l3.65624,0zm0.23975,0.86252l-0.99498,0.48301c-6.89291,3.35908 -9.74598,11.63692 -6.36545,18.48952c0.20978,0.41699 0.43156,0.82386 0.66532,1.19326c3.26664,4.51486 9.59613,5.54394 14.13946,2.29907c0.29969,-0.21474 0.5874,-0.44554 0.86311,-0.6918l6.6112,-5.90977c3.54835,-3.17052 5.21464,-7.92213 4.41746,-12.59522c-0.05394,-0.33787 -0.11388,-0.64362 -0.16783,-0.91784c-0.31767,-1.62273 -1.43852,-4.06219 -3.35655,-7.29575l-15.81174,4.94553zm-1.66629,-26.73167l13.47415,0.26233c1.22874,-3.30673 1.39057,-6.99298 0.47351,-11.06766c-0.37162,-1.65129 -0.88709,-3.05214 -1.53442,-4.20376c-1.1688,-2.06351 -3.26664,-3.43701 -5.6402,-3.68387l-16.7288,-1.74349c-4.69317,-0.48896 -8.89485,2.89332 -9.38635,7.55451c-0.02997,0.30753 -0.04795,0.61566 -0.04795,0.92498l0.00599,1.20039c0.02997,5.9294 4.87299,10.72146 10.84285,10.72146l8.54122,0l0,0.0351zm-14.18142,7.05068c1.60035,-3.00634 4.49538,-5.06747 8.66709,-6.19232l-3.02689,0c-6.46136,0 -11.71196,-5.18941 -11.74193,-11.61075l-0.00599,-1.20039c0,-0.34144 0.01798,-0.68288 0.05394,-1.02194c0.54544,-5.15194 5.19066,-8.88994 10.37533,-8.34982l16.7288,1.74349c2.66126,0.2766 5.01684,1.81844 6.32949,4.13476c0.69529,1.23252 1.23473,2.71427 1.62433,4.44586c0.95901,4.25194 0.78519,8.12556 -0.51547,11.61015c2.74518,2.99801 4.41746,6.48558 5.01684,10.45437c0.59938,3.95214 0.22177,7.34513 -1.13284,10.16944c2.00194,3.36265 3.17673,5.91334 3.53037,7.67526c0.05394,0.28255 0.11388,0.59663 0.16783,0.94223c0.84513,4.97468 -0.92904,10.03263 -4.70516,13.40777l-6.60521,5.90977c-0.29969,0.26827 -0.61737,0.51989 -0.94103,0.75367c-4.95091,3.53278 -11.84382,2.41209 -15.41615,-2.52808c-0.26373,-0.41996 -0.50348,-0.85241 -0.71926,-1.29676c-3.48841,-7.06793 -0.74923,-15.55991 6.10173,-19.33479l-1.83411,0c-2.20573,0 -4.3755,-0.53476 -6.3235,-1.55789c-6.59921,-3.46794 -9.12262,-11.59528 -5.62821,-18.15403zm5.62821,-25.10894c0.24575,-0.00357 0.44954,0.19332 0.45553,0.44018c0,0.24686 -0.1978,0.44911 -0.44354,0.45268c-3.31459,0.04699 -4.78308,2.01414 -4.50137,6.13403c0.2877,4.13892 1.76219,5.99602 4.46541,5.80865c0.25174,-0.01725 0.46153,0.16834 0.47951,0.41401c0.01798,0.24627 -0.16783,0.45981 -0.41357,0.47706c-3.29062,0.22783 -5.11274,-2.06351 -5.42442,-6.63845c-0.31767,-4.59398 1.50445,-7.03402 5.38247,-7.08815zm4.29758,25.46882c0.24575,-0.02082 0.46153,0.1618 0.4855,0.40747c0.01798,0.24567 -0.16183,0.46219 -0.41357,0.48242c-3.3026,0.27601 -4.62724,2.34011 -4.05783,6.43085c0.57541,4.10858 2.18176,5.85921 4.867,5.48505c0.24575,-0.0345 0.47351,0.13562 0.50348,0.3801c0.03596,0.24448 -0.13786,0.46993 -0.38361,0.50443c-3.26065,0.45506 -5.23861,-1.70482 -5.87396,-6.24705c-0.64134,-4.56007 1.00696,-7.12028 4.87299,-7.44328zm6.29952,26.04522c0.24575,-0.05056 0.47951,0.10469 0.53345,0.3462c0.04795,0.24151 -0.10789,0.47766 -0.34764,0.52822c-3.24267,0.67336 -4.30957,2.88261 -3.23667,6.87342c1.0729,4.00806 2.87704,5.55227 5.49635,4.85571c0.23975,-0.06365 0.4855,0.07792 0.55143,0.31646c0.06593,0.23794 -0.07792,0.48301 -0.31767,0.54666c-3.18273,0.84646 -5.41243,-1.05823 -6.59921,-5.48922c-1.19877,-4.44883 0.12587,-7.18987 3.91997,-7.97745z"/>
   <path stroke="null" id="svg_28" fill="white" d="m100.21427,298.75069l14.55244,150.82791l7.4923,0l-7.13566,-152.28052c-0.18701,-3.99556 -3.6029,-7.08459 -7.62955,-6.89899c-0.12347,0.00595 -0.24635,0.01487 -0.36922,0.02677c-4.22266,0.40866 -7.31488,4.13357 -6.91029,8.32483z" clip-rule="evenodd" fill-rule="evenodd"/>
   <path stroke="null" id="svg_29" fill="#263E4B" d="m99.76653,298.51275l14.5914,151.23062l8.37219,0l-7.15784,-152.74687c-0.1984,-4.24183 -3.82467,-7.5212 -8.09947,-7.32371c-0.13067,0.00595 -0.26133,0.01547 -0.392,0.02796c-4.4696,0.43245 -7.74224,4.37507 -7.31428,8.81201zm15.40896,150.33835l-14.51348,-150.42342c-0.38121,-3.94679 2.53,-7.45398 6.50631,-7.83885c0.11508,-0.0113 0.23076,-0.01963 0.34644,-0.02498c3.77851,-0.17429 6.98402,2.72438 7.15964,6.47428l7.11349,151.81297l-6.6124,0z"/>
   <path stroke="null" id="svg_30" fill="#263E4B" d="m111.09428,453.93225c-0.0941,0.22842 -0.35663,0.33787 -0.5862,0.24448c-0.23016,-0.09339 -0.33985,-0.35393 -0.24575,-0.58176c5.9309,-14.39164 9.38335,-24.44807 10.35495,-30.14369c0.04136,-0.2427 0.27332,-0.40628 0.51787,-0.36523c0.24515,0.04104 0.40998,0.27125 0.36862,0.51454c-0.98599,5.7795 -4.45462,15.88173 -10.4095,30.33166zm9.19335,-50.35469c0.07912,0.23318 -0.04795,0.48599 -0.28291,0.56451c-0.23556,0.07852 -0.4903,-0.04759 -0.56941,-0.28136c-2.63969,-7.81148 -7.9724,-14.47611 -16.01313,-19.99923c-0.20379,-0.14038 -0.25474,-0.41817 -0.11388,-0.62102c0.14145,-0.20225 0.42137,-0.25281 0.62576,-0.11302c8.19357,5.62841 13.64976,12.4471 16.35358,20.45012zm-6.44937,31.63377c-0.10249,0.22485 -0.36862,0.32419 -0.59459,0.22247c-0.22657,-0.10172 -0.32666,-0.36642 -0.22417,-0.59068c0.80198,-1.75598 1.33902,-3.18658 1.61054,-4.28525c3.73116,-15.09832 1.41814,-26.13147 -5.18767,-33.97329c-0.15944,-0.18916 -0.13426,-0.47052 0.05634,-0.62875c0.1906,-0.15763 0.47411,-0.13265 0.63355,0.05651c6.79401,8.06548 9.16817,19.3913 5.37048,34.75789c-0.28651,1.16054 -0.84153,2.63932 -1.66449,4.4411zm-10.5965,-143.83433c-0.03117,-0.24389 0.14265,-0.46755 0.389,-0.49848c0.24635,-0.03153 0.47171,0.14157 0.50288,0.38605c3.89539,30.30549 18.51436,46.33295 43.91984,48.21444c0.24755,0.01844 0.43335,0.23258 0.41477,0.47825c-0.01858,0.24567 -0.23436,0.43007 -0.4819,0.41163c-25.86221,-1.9154 -40.79825,-18.29025 -44.74459,-48.9919zm6.58183,-0.45922c-0.02338,-0.24508 0.15824,-0.46279 0.40518,-0.48599c0.24755,-0.0232 0.46692,0.15644 0.4903,0.40211c2.55337,26.68587 14.70888,40.59807 36.54802,42.19284c0.24755,0.01844 0.43335,0.23199 0.41537,0.47766c-0.01798,0.24627 -0.23376,0.43067 -0.48131,0.41223c-22.31026,-1.62928 -34.78523,-15.90671 -37.37757,-42.99885z"/>
   <path stroke="null" id="svg_31" fill="#263E4B" d="m349.12572,54.18199c-1.15681,0 -2.09784,-1.06655 -2.09784,-2.38175c0,-1.31579 0.94103,-2.38235 2.09784,-2.38235c1.15681,0 2.09784,1.06655 2.09784,2.38235c0,1.3152 -0.94103,2.38175 -2.09784,2.38175zm18.58089,0c-1.15681,0 -2.09784,-1.06655 -2.09784,-2.38175c0,-1.31579 0.94103,-2.38235 2.09784,-2.38235c1.15681,0 2.09784,1.06655 2.09784,2.38235c0,1.3152 -0.94103,2.38175 -2.09784,2.38175zm-22.73462,-4.47501c-0.16183,0.18797 -0.44354,0.21117 -0.62935,0.05175c-0.1918,-0.15942 -0.21578,-0.44078 -0.05394,-0.62934c0.07193,-0.08387 0.1978,-0.22366 0.37761,-0.40033c0.29969,-0.29266 0.62935,-0.58533 0.99498,-0.85895c1.0669,-0.79709 2.18176,-1.2807 3.3086,-1.2807c1.63032,0 2.51741,0.38665 3.41649,1.36755c0.14385,0.15466 0.2877,0.32359 0.47951,0.55558c0.05394,0.06781 0.39559,0.49253 0.50348,0.6234c0.15584,0.19154 0.12587,0.4729 -0.06593,0.62875c-0.1918,0.15525 -0.47351,0.1267 -0.62935,-0.06424c-0.10789,-0.13443 -0.45553,-0.55975 -0.50948,-0.62518c-0.17982,-0.2195 -0.31168,-0.37713 -0.43755,-0.51692c-0.73125,-0.79412 -1.37858,-1.07548 -2.75716,-1.07548c-0.89308,0 -1.84011,0.40985 -2.76316,1.10106c-0.33565,0.24745 -0.63535,0.51335 -0.90507,0.77924c-0.16183,0.15763 -0.27572,0.27839 -0.32966,0.34382zm19.19227,-0.01249c-0.15584,0.19392 -0.43755,0.22723 -0.62935,0.07495c-0.1978,-0.15287 -0.23376,-0.43364 -0.07792,-0.62756c0.06593,-0.08387 0.18581,-0.22366 0.35364,-0.40092c0.27572,-0.29326 0.5874,-0.58652 0.92904,-0.86074c0.99498,-0.80304 2.0379,-1.29081 3.09881,-1.29081c1.52843,0 2.37356,0.3926 3.2127,1.37944c0.13186,0.15525 0.26373,0.32419 0.43755,0.55618c0.05394,0.06781 0.37162,0.49253 0.47351,0.6234c0.14985,0.19689 0.10789,0.47706 -0.08991,0.62578c-0.1978,0.14871 -0.47951,0.11005 -0.62935,-0.08685c-0.1019,-0.13384 -0.41957,-0.55975 -0.46752,-0.62518c-0.16783,-0.2189 -0.2937,-0.37654 -0.41357,-0.51632c-0.67131,-0.78757 -1.25871,-1.06299 -2.52341,-1.06299c-0.81516,0 -1.68427,0.40509 -2.53539,1.09094c-0.30569,0.24686 -0.5874,0.51216 -0.83314,0.77746c-0.14985,0.15763 -0.25174,0.27779 -0.30569,0.34322zm-3.15276,8.20943l3.53636,0l-3.95593,-10.11055c-0.08991,-0.22961 0.02398,-0.48837 0.25174,-0.57819c0.23376,-0.08923 0.49149,0.02439 0.5814,0.25459l4.19569,10.71908c0.11988,0.29266 -0.1019,0.60852 -0.41357,0.60852l-4.19569,0c-0.25174,0 -0.44954,-0.19987 -0.44954,-0.44673c0,-0.24686 0.1978,-0.44673 0.44954,-0.44673zm-2.18775,6.20005c-0.22177,0.11659 -0.49149,0.0345 -0.61137,-0.18262c-0.11388,-0.21771 -0.02997,-0.48837 0.18581,-0.60496c1.63032,-0.86669 3.19472,-0.86669 4.64522,0.01309c0.20978,0.12849 0.27572,0.4033 0.14985,0.61388c-0.13186,0.21057 -0.40758,0.2766 -0.62336,0.14752c-1.1628,-0.70846 -2.39154,-0.70846 -3.74615,0.01309z" clip-rule="evenodd" fill-rule="evenodd"/>
   <path stroke="null" id="svg_32" fill="white" d="m28.15576,325.70542l23.97535,73.54466l118.37828,-15.7812l0,-86.04946l-116.94515,23.23756l-1.43313,10.10996l-7.66971,-8.30164l-16.30563,3.24011z" clip-rule="evenodd" fill-rule="evenodd"/>
   <path stroke="null" id="svg_33" fill="#263E4B" d="m44.79285,321.89188c-0.10609,-0.1154 -0.26553,-0.16715 -0.41957,-0.13622l-16.30563,3.24011c-0.26373,0.05235 -0.42257,0.32122 -0.33985,0.57462l23.97535,73.54466c0.06713,0.20522 0.27272,0.33371 0.4879,0.30456l118.37828,-15.7806c0.22297,-0.02974 0.3896,-0.2189 0.3896,-0.44197l0,-86.05005c0,-0.28196 -0.25953,-0.49313 -0.53765,-0.4378l-116.94515,23.23756c-0.18761,0.03748 -0.33086,0.18797 -0.35723,0.37535l-1.30006,9.17427l-7.02598,-7.60448zm-0.49149,0.78817l7.49829,8.11664c0.25714,0.27779 0.72346,0.13384 0.7768,-0.23972l1.38817,-9.79707l116.09522,-23.06862l0,85.11555l-117.61646,15.67888l-23.70443,-72.71366l15.5624,-3.092z"/>
   <path stroke="null" id="svg_34" fill="white" d="m1.78288,530.42555l39.85901,0c15.70026,-40.59212 30.11483,-65.9384 43.24433,-76.03705c0.7756,-0.59663 -3.84924,-7.20891 -13.87453,-19.83684c6.49852,5.10554 10.9939,8.38075 13.48613,9.82622c1.17359,0.6805 1.27369,-9.04578 0.29969,-29.17945l10.73137,32.27442c4.086,-2.03853 7.20159,-3.46734 9.34799,-4.28585c30.16878,-11.51319 54.9437,17.56454 74.32358,87.23855l405.18337,0" clip-rule="evenodd" fill-rule="evenodd"/>
   <path stroke="null" id="svg_35" fill="#263E4B" d="m84.27126,444.62117c0.42736,0.24745 0.81336,0.01785 1.02375,-0.42888c0.13666,-0.29028 0.24155,-0.72987 0.32726,-1.33542c0.16243,-1.15459 0.25534,-2.95161 0.28051,-5.40118c0.04435,-4.33343 -0.12347,-10.72205 -0.50408,-19.16824l9.70342,29.18302c0.08631,0.25876 0.38361,0.38129 0.62875,0.25876c4.07341,-2.03199 7.17762,-3.45545 9.30723,-4.268c29.81454,-11.37757 54.41145,17.49256 73.72899,86.94053c0.05394,0.1963 0.23136,0.32716 0.43335,0.32716l405.18337,0c0.24575,0 0.44954,-0.1963 0.44954,-0.44613c0,-0.24389 -0.20379,-0.44613 -0.44954,-0.44613l-404.84112,0c-19.42962,-69.66212 -44.3508,-98.83859 -74.82706,-87.20821c-2.08046,0.79352 -5.0528,2.15036 -8.92302,4.0717l-10.56833,-31.78368c-0.16363,-0.49313 -0.90087,-0.3575 -0.8757,0.1612c0.4867,10.0588 0.70488,17.51635 0.65513,22.36909c-0.02517,2.41387 -0.11628,4.17878 -0.27212,5.28637c-0.06413,0.45446 -0.13846,0.78995 -0.21518,0.99517c-2.50842,-1.49068 -6.92228,-4.71592 -13.226,-9.66799c-0.41777,-0.32835 -0.96201,0.20998 -0.63175,0.62578c5.00725,6.30713 8.66529,11.11108 10.97112,14.4083c1.14662,1.63939 1.95699,2.90343 2.4281,3.78558c0.22657,0.42412 0.37042,0.75307 0.43216,0.97792c0.01199,0.04342 0.01978,0.0803 0.02457,0.11005c-13.15767,10.1861 -27.53449,35.46695 -43.1814,75.86871l-39.55033,0c-0.24814,0 -0.44954,0.20225 -0.44954,0.44613c0,0.24983 0.20139,0.44613 0.44954,0.44613l39.85901,0c0.18641,0 0.35304,-0.11302 0.41957,-0.28552c15.67209,-40.52074 30.0555,-65.81348 43.09988,-75.84432c0.73724,-0.56689 -0.16543,-2.25684 -2.79313,-6.01327c-1.9492,-2.78684 -4.85141,-6.63488 -8.70725,-11.54472c4.9563,3.82544 8.48967,6.34995 10.61029,7.58009z"/>
   <path stroke="null" id="svg_36" fill="#263E4B" d="m353.75896,5.50001l-17.02789,0c-7.64874,0 -13.85895,6.12272 -13.93507,13.7046l-10.10741,14.47611c-0.20679,0.29623 0.00659,0.70132 0.36922,0.70132l68.33274,0c0.39559,0 0.59339,-0.4735 0.32367,-0.75664l-14.62496,-15.05727c-0.0959,-7.23389 -6.0298,-13.06812 -13.33029,-13.06812zm-30.1442,14.10017c0.05215,-0.07495 0.07972,-0.16358 0.07972,-0.25459c0,-7.15359 5.8368,-12.95212 13.0366,-12.95212l17.02789,0c6.86894,0 12.43721,5.53204 12.43721,12.35668c0,0.1154 0.04196,0.22664 0.12587,0.30991l14.0076,14.42852l-66.41231,0l9.69743,-13.8884z"/>
   <path stroke="null" id="svg_37" fill="#BAD9EA" d="m366.4599,19.04756l-43.40737,0.59544l-2.99692,4.46668l51.2473,0l-4.84302,-5.06212z" clip-rule="evenodd" fill-rule="evenodd"/>
   <path stroke="null" id="svg_38" fill="#263E4B" d="m366.7536,18.30342l-43.40737,0.59544c-0.14805,0.00238 -0.28591,0.07673 -0.36802,0.19868l-2.99692,4.46668c-0.199,0.29683 0.01498,0.69418 0.37402,0.69418l51.2473,0c0.39559,0 0.59938,-0.46993 0.32367,-0.75426l-4.84302,-5.06212c-0.08391,-0.08982 -0.20379,-0.14038 -0.32966,-0.1386zm3.80009,5.06152l-49.35805,0l2.39933,-3.5762l42.97281,-0.58949l3.9859,4.16569z"/>
   <path stroke="null" id="svg_39" fill="white" d="m244.83296,518.67145l-5.09476,24.41832l19.77966,0l76.72111,0c-4.42465,-9.27956 -9.61891,-15.72766 -15.58398,-19.35621c-5.96507,-3.6226 -16.85347,-5.31195 -32.66641,-5.06212l8.09168,-41.68068l-48.55008,0.29742l-0.59938,31.25902l-2.09784,10.12424z" clip-rule="evenodd" fill-rule="evenodd"/>
   <path stroke="null" id="svg_40" fill="white" d="m375.19891,515.10239l0,28.28481l11.98767,-0.29742l76.72111,0c-4.42345,-9.27956 -9.62011,-15.72766 -15.58398,-19.35621c-5.96387,-3.6226 -16.85467,-5.31195 -32.66641,-5.06212l7.4923,-41.01446l-52.44607,-0.3688l3.89599,31.25902l0.59938,6.55517z" clip-rule="evenodd" fill-rule="evenodd"/>
   <path stroke="null" id="svg_41" fill="#BAD9EA" d="m246.9308,508.85058c4.58888,0.73166 8.18518,3.6107 10.78891,8.63118c2.60372,5.02048 4.00268,11.766 4.19569,20.24847l-20.97843,-0.29742" clip-rule="evenodd" fill-rule="evenodd"/>
   <path stroke="null" id="svg_42" fill="#BAD9EA" d="m375.19891,508.85058c8.18758,1.92729 13.58203,5.40118 16.18336,10.41571c2.60133,5.02048 3.80009,11.17711 3.5963,18.46394l-19.77966,-0.29742l0,-28.58223z" clip-rule="evenodd" fill-rule="evenodd"/>
   <path stroke="null" id="svg_43" fill="#263E4B" d="m261.83868,477.05025l3.33737,-22.8408l-7.15664,0l0,-0.89227l7.28671,0l1.78377,-12.20857l-6.37325,0l0,-0.89227l34.76425,0l0,0.89227l-6.96843,0l-2.27946,12.20857l6.55066,0l0,0.89227l-6.71729,0l-4.24124,22.71588l14.79998,-0.08923l-6.62918,34.14996l2.28965,-6.22801c0.0959,-0.26173 0.21578,-0.51751 0.35783,-0.75545c1.30006,-2.19497 4.14893,-2.93258 6.36366,-1.64177c0.37282,0.21414 0.70907,0.48777 0.99558,0.80899c1.50325,1.68936 1.34622,4.25908 -0.35184,5.75214l-10.65464,9.36878c2.00554,-0.49967 6.92947,-1.75479 14.16344,-3.6226c0.24035,-0.05948 0.4855,0.08328 0.54844,0.32122c0.06234,0.23794 -0.08152,0.48182 -0.32187,0.54131c-5.26978,1.36219 -9.07047,2.33773 -11.57829,2.97422c13.83737,0.05948 23.52401,1.76669 29.0821,5.1454c6.04838,3.68208 11.29658,10.19562 15.7554,19.54656l0.30389,0.63648l-97.76307,0l5.20625,-24.95368l2.08945,-10.0826l0.60718,-31.65757l14.74963,-0.08923zm0.90927,-0.00595l8.69406,-0.05354l3.51299,-22.78131l-8.87088,0l-3.33617,22.83485zm9.60452,-0.05948l8.5574,-0.05354l4.24184,-22.72183l-9.28685,0l-3.51239,22.77537zm16.01673,42.42423c-0.03836,0.0119 -0.07792,0.0119 -0.11808,0.0119l-10.13917,0.29147c-0.24814,0.0119 -0.45553,-0.1844 -0.46272,-0.42829c-0.00719,-0.24983 0.18821,-0.45208 0.43635,-0.46398l9.05489,-0.26173l-10.96213,-9.63646c-1.69745,-1.49306 -1.85509,-4.06278 -0.35184,-5.75214c0.28651,-0.32122 0.62276,-0.59484 0.99558,-0.80899c2.21472,-1.29081 5.06419,-0.5532 6.36366,1.64177c0.14205,0.23794 0.26193,0.49372 0.35783,0.75545l4.37131,11.89687l0.14026,-0.38665l7.47971,-38.53396l-47.56349,0.29147l-0.5844,30.48573c9.3318,2.75413 14.6819,12.28352 14.97141,28.47516l69.90732,0c-3.53936,-5.73429 -7.4893,-9.92794 -11.84562,-12.57499c-5.82661,-3.53932 -16.51901,-5.21678 -32.05084,-5.00263zm0.55503,-2.90284l-0.15224,0.78519l10.28303,-9.03567c1.32584,-1.16589 1.44871,-3.17646 0.27452,-4.49107c-0.22417,-0.24983 -0.4861,-0.46398 -0.7774,-0.63648c-1.78676,-1.04098 -4.0848,-0.44613 -5.13312,1.3265c-0.11448,0.1963 -0.21158,0.39855 -0.2889,0.60674l-4.20588,11.44479zm43.88148,21.37273l-91.45876,0l-1.05671,5.06212l95.23487,0c-0.8769,-1.79643 -1.78317,-3.48578 -2.7194,-5.06212zm-91.27295,-0.89227l19.92651,0c-0.28471,-15.74551 -5.39805,-24.90015 -14.18621,-27.57694l-2.00014,9.65431l-3.74015,17.92263zm41.16627,-31.92525c-0.07732,-0.2082 -0.17382,-0.41044 -0.2889,-0.60674c-1.04832,-1.77263 -3.34636,-2.36748 -5.13312,-1.3265c-0.2913,0.1725 -0.55323,0.38665 -0.7774,0.63648c-1.17419,1.3146 -1.05132,3.32517 0.27452,4.49107l10.48382,9.21412l-4.55891,-12.40843zm4.89876,-63.95281l-9.71241,0l-1.88326,12.20857l9.31622,0l2.27946,-12.20857zm-10.62228,0l-8.97697,0l-1.78377,12.20857l8.87807,0l1.88266,-12.20857z"/>
   <path stroke="null" id="svg_44" fill="#BAD9EA" d="m243.03481,159.28786l-9.88983,0l10.78891,-16.97148" clip-rule="evenodd" fill-rule="evenodd"/>
   <path stroke="null" id="svg_45" fill="#263E4B" d="m381.2407,476.90154l-3.32059,-22.69209l-5.71812,0l0,-0.89227l5.59225,0l-1.78616,-12.20857l-5.60424,0l0,-0.89227l36.26271,0l0,0.89227l-7.74404,0l1.24072,12.20857l6.803,0l0,0.89227l-6.7131,0l2.31362,22.81106l21.11629,0.11897l-6.83897,39.337l4.30957,-11.71842c0.0959,-0.26173 0.21578,-0.51751 0.35963,-0.75545c1.29467,-2.19497 4.14774,-2.93258 6.35946,-1.64177c0.37761,0.21414 0.71327,0.48777 0.99498,0.80899c1.50445,1.68936 1.34861,4.25908 -0.34764,5.75214l-10.17753,8.94645c2.53539,-0.63648 6.79701,-1.73099 12.48516,-3.20026c0.23975,-0.05948 0.4855,0.08328 0.55143,0.32122c0.05994,0.23794 -0.08391,0.48182 -0.32367,0.54131c-5.26858,1.36219 -9.06868,2.33773 -11.5741,2.96827c13.99561,0.04164 23.77755,1.74884 29.37579,5.15134c6.04778,3.68208 11.29838,10.19562 15.7578,19.54656l0.29969,0.63648l-90.15929,0l-0.00599,-0.44018l-0.2937,-34.48902l-4.26761,-32.06801l11.05264,0.06543zm0.90507,0.00595l9.02672,0.04759l-2.02592,-22.74562l-10.31539,0l3.31459,22.69804zm9.93179,0.05354l9.58415,0.05354l-2.31362,-22.80511l-9.30243,0l2.03191,22.75157zm-16.78874,31.44937c13.02461,2.60541 19.7437,12.17645 20.1333,28.57628l64.81136,0c-3.53636,-5.73429 -7.4863,-9.92794 -11.84382,-12.57499c-5.80803,-3.52742 -16.44109,-5.20488 -31.88122,-5.00263c-0.05994,0.0119 -0.11988,0.0119 -0.17982,0c-0.10789,0.00595 -0.21578,0.00595 -0.32367,0.00595c-0.02398,0.00595 -0.05394,0.00595 -0.08391,0.00595l-10.14157,0.29147c-0.24575,0.0119 -0.45553,-0.1844 -0.46153,-0.42829c-0.00599,-0.24983 0.18581,-0.45208 0.43755,-0.46398l9.05669,-0.26173l-10.96273,-9.63646c-1.70225,-1.49306 -1.85809,-4.06278 -0.35364,-5.75214c0.2877,-0.32122 0.62336,-0.59484 0.99498,-0.80899c2.21772,-1.29081 5.06479,-0.5532 6.36545,1.64177c0.13786,0.23794 0.25773,0.49372 0.35364,0.75545l4.59128,12.48576l6.81499,-39.21803l-51.39715,-0.29147l4.06982,30.67608zm0.06593,0.92201l0.23975,27.65427l18.92254,0c-0.37761,-15.90017 -6.75505,-25.07265 -19.1623,-27.65427zm85.41817,28.54654l-85.17242,0l0.04196,5.06212l87.85167,0c-0.8751,-1.79643 -1.78616,-3.48578 -2.7212,-5.06212zm-50.40217,-32.81751c-0.07792,-0.2082 -0.17982,-0.41044 -0.2937,-0.60674c-1.04892,-1.77263 -3.34456,-2.36748 -5.13072,-1.3265c-0.2937,0.1725 -0.55143,0.38665 -0.7792,0.63648c-1.17479,1.3146 -1.04892,3.32517 0.27572,4.49107l10.48322,9.21412l-4.55532,-12.40843zm11.62804,0l-4.56131,12.40843l10.48322,-9.21412c1.33063,-1.16589 1.45051,-3.17646 0.27572,-4.49107c-0.22177,-0.24983 -0.4855,-0.46398 -0.7792,-0.63648c-1.78616,-1.04098 -4.0818,-0.44613 -5.13072,1.3265c-0.11388,0.1963 -0.20978,0.39855 -0.2877,0.60674zm-23.98134,-63.95281l-9.1406,0l1.09088,12.20857l9.29045,0l-1.24072,-12.20857zm-10.04567,0l-11.05264,0l1.78017,12.20857l10.36334,0l-1.09088,-12.20857z"/>
   <path stroke="null" id="svg_46" fill="#BAD9EA" d="m88.78822,357.55512l0.88469,5.54275l-5.13912,0.8078l0.66352,4.15736l-6.60641,1.038l-0.66352,-4.15677l-18.13196,2.84989l-0.88469,-5.54275l15.60615,-18.67689l6.60701,-1.038l2.5258,15.8264l5.13852,-0.8078zm-22.7568,3.57679l11.01128,-1.73099l-1.47808,-9.26231l-9.5332,10.9933zm41.1369,3.85102c-10.20391,1.60429 -15.79376,-2.30204 -17.14957,-10.79879c-1.35041,-8.46046 2.75537,-13.85331 12.95927,-15.45701c10.16675,-1.59775 15.79376,2.30264 17.13818,10.72622c1.34981,8.46046 -2.78114,13.93183 -12.94789,15.52958zm-0.8787,-5.50647c5.79904,-0.9113 7.98199,-4.20733 7.21958,-8.98452c-0.75642,-4.7409 -3.85344,-7.16965 -9.65247,-6.25835c-5.79904,0.9119 -7.99398,4.13476 -7.23156,8.91194c0.76841,4.81347 3.86483,7.24281 9.66446,6.33092zm46.36413,-11.95992l0.88409,5.54275l-5.13852,0.8078l0.66352,4.15677l-6.60641,1.0386l-0.66352,-4.15677l-18.13196,2.84989l-0.88469,-5.54275l15.60615,-18.67689l6.60641,-1.0386l2.5258,15.8264l5.13912,-0.8072zm-22.7568,3.57679l11.01128,-1.73099l-1.47808,-9.26231l-9.5332,10.9933z"/>
   <path stroke="null" id="svg_47" fill="#263E4B" d="m89.44874,356.75209l1.02555,6.42431l-5.13852,0.8078l0.66352,4.15677l-7.49469,1.17838l-0.66352,-4.15736l-18.13196,2.84989l-0.98718,-6.1828l15.84411,-18.96123l7.21838,-1.13437l2.5258,15.8264l5.13852,-0.8078zm-5.88595,1.82855l-2.5258,-15.8264l-5.99504,0.94223l-15.3682,18.39196l0.7828,4.9027l18.13196,-2.84989l0.66292,4.15736l5.71872,-0.8994l-0.66292,-4.15677l5.13852,-0.8078l-0.74384,-4.66179l-5.13912,0.8078zm-18.3843,2.88975l10.96513,-12.64518l1.70045,10.65424l-12.66558,1.99094zm11.63703,-2.73271l-1.25631,-7.87037l-8.10067,9.34142l9.35698,-1.47105zm30.71002,6.39338c-10.25785,1.61262 -16.2415,-2.25684 -17.66384,-11.16938c-1.41574,-8.87268 3.07064,-14.35476 13.33329,-15.96738c10.22369,-1.60727 16.2421,2.25922 17.65245,11.0968c1.41634,8.87804 -3.10181,14.43388 -13.3219,16.03995zm-0.14026,-0.88096c9.74838,-1.53232 13.9099,-6.64916 12.57387,-15.0198c-1.32883,-8.32781 -6.87014,-11.88795 -16.62391,-10.35503c-9.79153,1.53945 -13.92009,6.58373 -12.58526,14.94663c1.34142,8.40514 6.84796,11.96647 16.63529,10.4282zm-0.73844,-4.6255c-5.86017,0.92141 -9.34319,-1.46986 -10.17813,-6.70151c-0.82895,-5.1912 1.74181,-8.50091 7.60498,-9.42232c5.84879,-0.91963 9.34199,1.46034 10.16675,6.62894c0.83135,5.20845 -1.7466,8.57586 -7.59359,9.49489zm-0.14086,-0.88096c5.36508,-0.84349 7.59839,-3.7612 6.84616,-8.47473c-0.74503,-4.67071 -3.76892,-6.73125 -9.1382,-5.88717c-5.38306,0.84646 -7.60618,3.70885 -6.85755,8.40157c0.75582,4.73614 3.77132,6.8056 9.14959,5.96033zm46.80827,-12.03011l1.02555,6.42431l-5.13852,0.8072l0.66292,4.15736l-7.49469,1.17838l-0.66352,-4.15736l-18.13136,2.84989l-0.98718,-6.1828l15.84411,-18.96123l7.21838,-1.13437l2.5258,15.8264l5.13852,-0.8078zm-5.88595,1.82855l-2.5258,-15.8264l-5.99504,0.94223l-15.3682,18.39137l0.7822,4.90329l18.13196,-2.84989l0.66352,4.15677l5.71872,-0.89881l-0.66352,-4.15677l5.13912,-0.8078l-0.74443,-4.66179l-5.13852,0.8078zm-18.3843,2.88975l10.96513,-12.64518l1.70045,10.65424l-12.66558,1.99094zm11.63703,-2.73271l-1.25631,-7.87097l-8.10067,9.34202l9.35698,-1.47105z"/>
   <path stroke="null" id="svg_48" fill="#263E4B" d="m243.81701,141.83753c0.05454,-0.20284 0.1007,-0.392 0.13906,-0.56629l0.49149,-10.29674c0.81456,-17.06903 14.981,-30.49227 32.18091,-30.49227l33.83701,0l0,0.89345l-33.83701,0c-16.71981,0 -30.49065,13.04849 -31.28303,29.64105l-0.14265,2.99385c1.58897,-6.05491 4.65361,-11.47156 9.19754,-16.12323c6.84976,-7.01142 15.33223,-3.51671 25.26222,10.17361c0.14505,0.19987 0.0995,0.47944 -0.1019,0.6234c-0.20139,0.14455 -0.4825,0.09874 -0.62755,-0.10112c-9.65068,-13.30546 -17.55115,-16.55985 -23.88784,-10.07367c-5.96327,6.10488 -9.31143,13.54934 -10.06425,22.05917c-0.02098,0.23675 -0.06413,0.50919 -0.13007,0.8191l-1.36719,28.64052l-0.89788,-0.04223l0.50348,-10.54895l-9.64468,0c-0.35364,0 -0.56882,-0.38784 -0.38001,-0.68526l10.75234,-16.91437zm-0.6851,16.70618l0.71986,-15.0882l-9.59134,15.0882l8.87148,0z"/>
   <path stroke="null" id="svg_49" fill="#263E4B" d="m376.49358,181.81398c-0.24575,-0.00952 -0.44354,-0.21712 -0.43156,-0.46338c0.00599,-0.24686 0.21578,-0.43899 0.46752,-0.42948c3.3086,0.12551 4.88498,-1.76252 4.81305,-5.89192c-0.06593,-4.14784 -1.43852,-6.0793 -4.14774,-6.03231c-0.25174,0.00476 -0.45553,-0.19213 -0.46153,-0.4384c0,-0.24686 0.1978,-0.4503 0.44354,-0.45446c3.29661,-0.0571 4.99287,2.32584 5.06479,6.91089c0.07792,4.60409 -1.87607,6.94599 -5.74809,6.79906zm-0.95901,31.41666c-0.24575,-0.02201 -0.43156,-0.23913 -0.40758,-0.4848c0.02398,-0.24567 0.23975,-0.4271 0.49149,-0.40449c3.29661,0.29742 4.96889,-1.50674 5.11874,-5.63376c0.14985,-4.14546 -1.12085,-6.14592 -3.83006,-6.23991c-0.24575,-0.00833 -0.44354,-0.21533 -0.43156,-0.4616c0.00599,-0.24686 0.21578,-0.43959 0.46153,-0.43067c3.29661,0.11421 4.867,2.58162 4.69917,7.16429c-0.16783,4.60171 -2.24169,6.83892 -6.10173,6.49093zm-19.6478,34.76444c-0.22777,-0.09934 -0.33565,-0.36226 -0.23376,-0.5883c0.1019,-0.22604 0.36562,-0.32895 0.59339,-0.2302c3.05086,1.32888 5.08877,0.45743 6.3235,-2.71487c1.24072,-3.19371 0.5874,-5.16443 -1.95998,-6.13581c-0.23376,-0.08863 -0.34764,-0.34679 -0.25773,-0.577c0.08991,-0.2302 0.34764,-0.3456 0.5814,-0.25697c3.05686,1.16411 3.88401,3.66899 2.47545,7.291c-1.41455,3.64282 -3.99789,4.74685 -7.52227,3.21215zm-32.36972,-118.89493l0.86911,0.2302c-1.63991,6.11023 -5.0618,9.71617 -10.23627,10.74406l-0.17622,-0.87561c4.81545,-0.9571 7.98679,-4.29893 9.54339,-10.09866z"/>
   <path stroke="null" id="svg_50" fill="#263E4B" d="m273.16942,140.94288l1.19877,4.46608c0.06353,0.23853 0.30988,0.3801 0.54963,0.31646c0.24035,-0.06365 0.38301,-0.30813 0.31887,-0.54666l-1.19877,-4.46608c-0.06413,-0.23853 -0.31048,-0.3801 -0.55023,-0.31646c-0.23975,0.06365 -0.38241,0.30813 -0.31827,0.54666z"/>
   <path stroke="null" id="svg_51" fill="#263E4B" d="m273.50268,141.26291l3.89599,0.89345c0.24155,0.05532 0.4831,-0.09458 0.53885,-0.3349c0.05574,-0.24032 -0.0953,-0.48004 -0.33685,-0.53536l-3.89599,-0.89345c-0.24215,-0.05532 -0.4831,0.09458 -0.53945,0.3349c-0.05574,0.24032 0.0953,0.48004 0.33745,0.53536z"/>
   <path stroke="null" id="svg_52" fill="#263E4B" d="m442.67153,144.0902c-3.02689,-3.63152 -8.29547,-4.01519 -12.641,-1.17601c-1.69626,1.10581 -2.92499,2.68155 -3.50639,4.48155c-1.4625,4.53687 4.2796,16.12977 17.23228,35.07019c0.13786,0.20403 0.41957,0.25697 0.62336,0.11837c0.20379,-0.1386 0.25773,-0.41639 0.11988,-0.62042c-12.7429,-18.63228 -18.44903,-30.16154 -17.1184,-34.2957c0.51547,-1.60191 1.61834,-3.01229 3.14077,-4.00806c3.9859,-2.60303 8.73901,-2.25684 11.46022,1.00053c0.15584,0.18976 0.44354,0.21593 0.62935,0.05829c0.1918,-0.15704 0.22177,-0.43899 0.05994,-0.62875z"/>
  </g>
 </g>
</svg>