<?xml version="1.0" standalone="no"?><svg xmlns="http://www.w3.org/2000/svg" viewBox="0 0 1440 320"><path fill="#0099ff" fill-opacity="1" d="M0,256L21.8,234.7C43.6,213,87,171,131,181.3C174.5,192,218,256,262,250.7C305.5,245,349,171,393,149.3C436.4,128,480,160,524,176C567.3,192,611,192,655,186.7C698.2,181,742,171,785,149.3C829.1,128,873,96,916,117.3C960,139,1004,213,1047,256C1090.9,299,1135,309,1178,304C1221.8,299,1265,277,1309,272C1352.7,267,1396,277,1418,282.7L1440,288L1440,320L1418.2,320C1396.4,320,1353,320,1309,320C1265.5,320,1222,320,1178,320C1134.5,320,1091,320,1047,320C1003.6,320,960,320,916,320C872.7,320,829,320,785,320C741.8,320,698,320,655,320C610.9,320,567,320,524,320C480,320,436,320,393,320C349.1,320,305,320,262,320C218.2,320,175,320,131,320C87.3,320,44,320,22,320L0,320Z"></path></svg>