<svg width="85" height="100" xmlns="http://www.w3.org/2000/svg" xml:space="preserve" version="1.1">

 <g>
  <title>Layer 1</title>
  <g stroke="null" id="svg_1">
   <g stroke="null" id="svg_2" xmlns="http://www.w3.org/2000/svg">
    <g stroke="null" id="svg_3">
     <path stroke="null" id="svg_4" data-original="#000000" fill="#ffffff" d="m83.17651,39.56652c-1.18745,-0.77902 -2.46664,-1.39374 -3.80026,-1.90117c5.52831,-15.5566 -7.97992,-35.64169 -24.76648,-31.83676c-1.12266,-2.61955 -3.22649,-4.42845 -7.05785,-5.23754c-4.69694,-0.99205 -13.35792,-1.42795 -15.14869,4.53004c-0.00207,0.00622 -0.00311,0.01296 -0.00518,0.0197c-15.16216,1.4124 -24.16316,17.66302 -22.52219,31.91814c-5.03229,2.2417 -10.27345,7.72284 -3.84017,10.46523c-0.46752,0.65411 -0.15342,1.74619 0.91586,1.8711c1.47408,0.17208 2.94867,0.28403 4.42431,0.35763c-0.09692,0.45352 -0.17104,0.90031 -0.24516,1.34605c-1.72753,-0.79457 -4.08792,-0.11144 -5.50447,1.01434c-1.45231,1.15324 -2.22511,2.95904 -2.22356,4.79594c0.00415,4.50309 4.52849,5.93 8.09084,4.54559c0.95732,3.70489 2.81339,6.96973 5.30233,9.74581c-5.01311,5.96836 -12.21297,18.28499 -6.67948,25.73986c0.43953,0.59295 1.1465,0.64271 1.63009,0.34105c21.19842,3.85105 43.24221,1.33465 64.63551,2.12715c1.20093,0.04457 2.01519,-1.34139 1.48911,-2.38268c9.50687,-7.34136 -3.54836,-23.67802 -10.90838,-28.17852c1.3813,-2.14166 2.52936,-4.48028 3.40427,-6.99409c4.21387,1.16465 8.88697,-1.80528 9.54263,-6.11763c0.68262,-4.48443 -3.01139,-7.19053 -7.18742,-5.79783c-0.08656,0.02903 -0.13891,0.08448 -0.21458,0.12284c0.0197,-0.48773 0.06272,-0.96717 0.06686,-1.46008c2.34899,0.05701 4.69797,0.11403 7.04696,0.12854c0.65774,0.00415 1.12474,-0.27574 1.4295,-0.67432c0.13269,-0.01607 0.26175,-0.0171 0.40376,-0.07619c4.50724,-1.87577 6.44209,-5.31528 1.72183,-8.41219zm-76.61732,17.34166c-0.04146,-0.94696 0.40843,-1.78247 1.13251,-2.41637c0.86506,-0.75725 2.05562,-0.68365 3.13734,-0.89201c-0.15187,2.05199 -0.06116,4.0138 0.24827,5.87765c-2.03074,0.13269 -4.41135,-0.14668 -4.51812,-2.56927zm49.20901,-44.58515c-0.04768,-1.61713 -0.19489,-3.09432 -0.49602,-4.42431c7.45643,-0.269 13.4875,3.03005 17.54484,9.5416c3.78834,6.08083 3.65099,12.49027 3.42708,19.26356c-6.92879,-1.64357 -14.92115,-0.81634 -21.32644,-0.55667c-0.01607,0.00052 -0.03214,0 -0.0482,0.00104c3.89874,-5.72734 1.08949,-17.3795 0.89875,-23.82522zm-17.74958,-8.23493c2.86263,-1.15117 7.15944,-0.45508 10.03451,0.16016c5.64027,1.20663 4.29784,10.04436 4.37351,14.32716c0.099,5.62627 1.08845,11.26291 -0.73445,16.71658c-0.11714,0.3509 -0.09692,0.64426 -0.02332,0.90653c-5.50654,0.08345 -10.9768,-0.12595 -16.46313,-0.4302c-1.36212,-7.82806 -0.05546,-15.69603 -0.05079,-23.57695c0.00259,-2.81599 -0.3312,-6.81891 2.86367,-8.10328zm-6.35398,4.9478c-0.31721,3.07307 -0.15031,6.2358 -0.2462,9.2814c-0.18556,5.89994 -0.47322,11.74649 1.59329,17.3256c-1.42069,-0.08137 -2.84035,-0.16275 -4.26622,-0.24205c-4.99134,-0.27678 -11.15354,-0.65774 -16.28431,0.74948c1.24654,-11.72161 6.13836,-25.09094 19.20344,-27.11443zm-19.66681,85.61106c-0.24153,-1.73168 -0.24361,-3.41723 -0.07827,-5.07012c0.89927,1.01434 1.82601,2.00379 2.80458,2.95178c0.68054,0.65929 1.44142,1.50518 2.26761,2.25154c-1.66482,-0.04509 -3.326,-0.08811 -4.99393,-0.13321zm7.9737,0.21354c-0.88787,-1.24343 -2.35676,-2.17224 -3.47683,-3.15133c-1.47978,-1.29422 -2.91809,-2.63302 -4.31442,-4.01588c0.12439,-0.68573 0.27989,-1.36575 0.45663,-2.04059c1.59951,2.08776 3.23478,4.14908 5.00171,6.09845c0.83293,0.91897 1.88043,2.123 3.05234,3.12697c-0.23998,-0.00777 -0.47944,-0.01192 -0.71942,-0.01762zm4.89182,0.11558c-2.06495,-1.78766 -4.27814,-3.28298 -6.22803,-5.27123c-1.89598,-1.93278 -3.66187,-3.98996 -5.39303,-6.07202c0.27781,-0.83189 0.59761,-1.65549 0.93244,-2.47494c2.33655,2.95334 4.81149,5.79835 7.44658,8.48839c1.56945,1.6021 3.73392,3.93761 6.05336,5.38837c-0.93763,-0.02125 -1.87421,-0.03628 -2.81132,-0.05857zm6.99098,0.14409c-0.04043,-0.12077 -0.09796,-0.23635 -0.1954,-0.32861c-1.03766,-0.98686 -2.406,-1.54871 -3.59812,-2.34588c-1.8172,-1.21492 -3.46025,-2.69729 -5.06857,-4.17085c-2.92328,-2.6776 -5.54801,-5.64959 -8.16548,-8.62004c0.31099,-0.69713 0.65566,-1.38545 0.98946,-2.07636c2.9098,3.57479 6.15391,6.8526 9.54471,9.97076c2.7004,2.48375 5.72268,5.58377 8.98078,7.60467c-0.82878,-0.0114 -1.65808,-0.01866 -2.48738,-0.03369zm5.49669,0.07464c-0.03369,-0.1218 -0.08552,-0.24464 -0.17934,-0.36126c-2.73046,-3.3996 -7.08998,-5.85277 -10.44087,-8.65269c-3.60434,-3.01139 -6.98787,-6.17672 -10.00237,-9.7852c-0.0793,-0.09485 -0.16534,-0.15705 -0.25345,-0.19696c0.58621,-1.16724 1.19315,-2.32774 1.80424,-3.48305c0.00622,0.00622 0.01348,0.01088 0.0197,0.01659c-0.00415,0.11766 0.01244,0.23998 0.08137,0.37007c2.62628,4.95039 6.50896,8.90615 10.67566,12.596c3.55354,3.14615 7.36106,6.64994 11.34169,9.50324c-1.01589,-0.00622 -2.0323,0.00466 -3.04663,-0.00674zm6.98269,0.01399c-3.39339,-3.9117 -8.49512,-6.88836 -12.48664,-10.08427c-3.59345,-2.87663 -7.01068,-5.9414 -9.8842,-9.50428c3.05026,2.06858 6.5613,3.62922 10.31336,4.65185c0.34779,2.39304 5.32617,5.88128 6.52761,6.96403c2.28938,2.06236 4.66895,4.02624 7.05474,5.97561c0.60746,0.49602 1.39115,1.30563 2.23029,1.97062c-1.25172,0.00933 -2.50448,0.02488 -3.75517,0.02643zm6.92827,-0.05753c-0.41309,-1.33517 -2.28679,-2.2702 -3.3146,-3.07359c-1.98772,-1.55442 -3.94953,-3.142 -5.89476,-4.74929c-1.90376,-1.57256 -3.81063,-3.13682 -5.64752,-4.78816c-0.43124,-0.38718 -1.387,-1.0729 -2.10434,-1.77107c1.98513,0.42502 4.03039,0.67173 6.10104,0.78369c2.27694,2.6693 4.70938,5.17689 7.2631,7.58912c1.9447,1.83638 4.05838,4.19366 6.34154,5.94555c-0.9143,0.0197 -1.83068,0.05028 -2.74446,0.06375zm6.15236,-0.15031c-1.8115,-2.61955 -4.95765,-4.60312 -7.33722,-6.65823c-2.51226,-2.16913 -4.96231,-4.37921 -7.27502,-6.74531c1.104,-0.01192 2.16758,-0.0907 3.21405,-0.19696c0.03732,0.08811 0.09433,0.17156 0.17623,0.24568c2.8673,2.59363 5.50239,5.43087 8.29091,8.10795c1.62335,1.55804 3.63336,3.65461 5.81131,5.00274c-1.1351,0.11299 -2.12819,0.20888 -2.88026,0.24412zm6.87229,-0.61005c-0.03939,-0.05598 -0.0679,-0.11455 -0.12128,-0.16793c-2.58897,-2.56357 -6.05232,-4.43623 -8.82995,-6.87592c-2.40807,-2.11523 -4.79542,-4.24342 -7.2999,-6.24202c1.05787,-0.17467 2.0748,-0.41102 3.06892,-0.68002c0.03887,0.099 0.09744,0.19489 0.2011,0.27471c2.93157,2.29042 5.58999,4.89131 8.2199,7.51759c1.89806,1.89546 3.81788,4.32997 6.04196,6.08601c-0.4302,0.02643 -0.85936,0.05546 -1.28075,0.08759zm11.22559,0.72097c-0.00518,0.01088 -0.00466,0.02332 -0.00933,0.03421c-1.67415,-0.68313 -3.92776,-0.92363 -6.30733,-0.94644c-2.06858,-2.91758 -5.38629,-5.2422 -8.00791,-7.64509c-2.64183,-2.42103 -5.37852,-4.67361 -8.35466,-6.66134c2.29819,-0.77902 4.39787,-1.82912 6.31407,-3.09536c-0.08708,0.46493 0.36541,0.89616 0.88787,0.65463c-0.59606,0.27626 0.07567,0.51883 0.54112,0.92467c0.62768,0.54786 1.21751,1.13873 1.82135,1.7125c1.66274,1.57774 3.30786,3.1731 4.96231,4.75965c2.67812,2.56823 5.56615,6.31977 8.90407,8.1038c-0.18815,0.71527 -0.42035,1.43365 -0.75155,2.15877zm-15.65767,-18.77946c0.63182,-0.4473 1.23358,-0.9283 1.82031,-1.42587c0.09381,0.1104 0.21043,0.19903 0.35919,0.20836c2.5164,0.16068 5.30336,3.34207 6.95833,4.93899c2.26087,2.18261 4.17759,5.43812 6.77589,7.16877c0.22132,0.1472 0.46441,0.1954 0.70128,0.17052c0.15083,0.82982 0.2348,1.66741 0.22598,2.51588c-3.79248,-3.73547 -14.06023,-13.29624 -16.84098,-13.57665zm13.82233,4.30354c-1.35072,-1.25846 -2.79163,-2.40134 -3.93709,-3.34674c-1.80113,-1.48548 -4.38284,-3.74169 -6.88058,-3.439c0.94125,-0.9029 1.8172,-1.87525 2.62317,-2.91291c2.82065,2.84708 5.95644,6.12333 8.1945,9.69864zm-29.69458,-2.78281c-17.84132,1.83171 -30.89706,-10.65441 -30.49123,-28.04842c10.16201,0.23583 20.35409,-1.36109 30.50937,-1.63372c8.34481,-0.22443 16.69637,0.10418 25.04585,0.34571c-0.75155,16.13037 -8.00636,27.58505 -25.06399,29.33643zm29.57952,-24.87947c2.03282,-0.6567 3.63284,0.05857 3.22131,2.42103c-0.53542,3.07411 -3.06737,3.86349 -5.71076,4.1325c0.59139,-2.14166 1.01123,-4.37818 1.24861,-6.69503c0.32239,0.21873 0.74274,0.30321 1.24084,0.1415zm6.60588,-8.05508c-0.04561,0.02643 -0.0679,0.0679 -0.10936,0.09744c-0.14305,-0.03317 -0.26952,-0.08967 -0.43434,-0.0907c-11.87814,-0.0679 -23.74385,-0.68521 -35.62355,-0.54423c-11.99425,0.14202 -24.04032,1.66274 -36.0045,2.57342c-0.03214,-0.05339 -0.03058,-0.11558 -0.08293,-0.16171c-4.58965,-4.03765 3.35037,-6.54887 5.06701,-7.04593c4.81874,-1.39529 10.78917,-0.8547 15.766,-0.68365c7.64147,0.26227 15.18082,1.00708 22.84095,0.85366c6.46853,-0.12958 13.23094,-1.20715 19.658,-0.21925c2.29042,0.35193 13.75288,2.44954 8.92273,5.22095z"/>
     <path stroke="null" id="svg_5" data-original="#000000" fill="#ffffff" d="m25.00486,51.65199c-1.2538,0 -2.26191,1.25691 -1.89287,2.48479c0.33535,1.11748 0.58362,2.03023 1.35383,2.94816c0.40428,0.48151 1.203,0.52194 1.71613,0.22132c0.59917,-0.3509 0.74326,-0.95888 0.651,-1.59951c-0.07101,-0.49447 -0.06272,-1.09467 0.06531,-1.57048c0.3312,-1.23151 -0.61161,-2.48427 -1.89339,-2.48427z"/>
     <path stroke="null" id="svg_6" data-original="#000000" fill="#ffffff" d="m62.26627,54.03052c-0.01659,-0.11092 -0.03214,-0.22132 -0.04924,-0.33224c-0.00207,-0.02177 -0.00674,-0.05805 -0.0171,-0.14513c-0.0539,-0.46907 -0.1358,-0.81841 -0.3369,-1.24809c-0.27004,-0.57636 -1.04543,-0.95628 -1.67985,-0.95628c-0.61938,0 -1.23825,0.43434 -1.54353,0.95628c-0.50743,0.86662 -0.14565,1.69695 0.21199,2.52055c0.38096,0.8775 0.67951,1.55597 1.08534,2.40704c0.53801,1.12785 2.14892,0.70387 2.48012,-0.32394c0.29544,-0.91948 -0.0114,-1.95041 -0.15083,-2.87818z"/>
     <path stroke="null" id="svg_7" data-original="#000000" fill="#ffffff" d="m52.55052,59.08769c-0.94281,-0.91586 -2.32255,-0.41931 -2.74809,0.72512c-0.78576,2.11834 0.11869,4.01432 -1.26105,6.11867c-1.11022,1.69332 -3.32082,2.49049 -5.19296,2.89062c-5.13958,1.10038 -8.31061,-2.23237 -9.03883,-6.98839c-0.16068,-1.0501 -1.67829,-0.87595 -1.94833,0c-2.19298,7.11953 4.44867,11.75168 10.97213,11.04729c3.24359,-0.34986 6.42654,-1.84104 8.45418,-4.44452c1.80424,-2.31737 3.15703,-7.02623 0.76295,-9.34878z"/>
     <path stroke="null" id="svg_8" data-original="#000000" fill="#ffffff" d="m73.91324,93.12727c-1.34968,-2.64546 -4.95765,-4.83481 -7.14233,-6.84897c-2.72373,-2.51226 -5.45056,-5.12506 -8.60708,-7.09257c-0.55978,-0.34882 -1.20663,0.4727 -0.70801,0.91793c2.73202,2.43917 5.33757,4.97268 7.87626,7.61296c2.08206,2.16551 4.58809,5.87972 7.57512,6.71939c0.78732,0.22236 1.35176,-0.6313 1.00604,-1.30874z"/>
    </g>
   </g>
   <g stroke="null" id="svg_9" xmlns="http://www.w3.org/2000/svg"/>
   <g stroke="null" id="svg_10" xmlns="http://www.w3.org/2000/svg"/>
   <g stroke="null" id="svg_11" xmlns="http://www.w3.org/2000/svg"/>
   <g stroke="null" id="svg_12" xmlns="http://www.w3.org/2000/svg"/>
   <g stroke="null" id="svg_13" xmlns="http://www.w3.org/2000/svg"/>
   <g stroke="null" id="svg_14" xmlns="http://www.w3.org/2000/svg"/>
   <g stroke="null" id="svg_15" xmlns="http://www.w3.org/2000/svg"/>
   <g stroke="null" id="svg_16" xmlns="http://www.w3.org/2000/svg"/>
   <g stroke="null" id="svg_17" xmlns="http://www.w3.org/2000/svg"/>
   <g stroke="null" id="svg_18" xmlns="http://www.w3.org/2000/svg"/>
   <g stroke="null" id="svg_19" xmlns="http://www.w3.org/2000/svg"/>
   <g stroke="null" id="svg_20" xmlns="http://www.w3.org/2000/svg"/>
   <g stroke="null" id="svg_21" xmlns="http://www.w3.org/2000/svg"/>
   <g stroke="null" id="svg_22" xmlns="http://www.w3.org/2000/svg"/>
   <g stroke="null" id="svg_23" xmlns="http://www.w3.org/2000/svg"/>
  </g>
 </g>
</svg>