<svg width="346.393" height="94.393" xmlns="http://www.w3.org/2000/svg" xml:space="preserve" version="1.1">
 <g>
  <title>Layer 1</title>
  <g id="svg_1" stroke="null" transform="rotate(90 172.196 50.196)">
   <g id="svg_2" stroke="null" xmlns="http://www.w3.org/2000/svg">
    <path id="svg_3" data-original="#000000" fill="#fafafa" d="m201.66068,-62.49266c-4.01293,-21.04898 -14.33189,-39.09096 -26.94395,-55.32972c-2.86731,-3.6084 -8.60007,-2.40461 -10.89317,1.20378c-10.31896,19.24478 -18.91809,40.29376 -21.21119,62.54455c-0.57328,6.61539 9.17241,7.21777 10.31896,1.20378c4.01293,-16.23778 9.74568,-31.87515 17.19826,-46.90915c2.86638,4.2098 5.73369,9.02099 8.02679,13.83218c-4.01293,-4.2098 -13.18627,-2.4056 -13.18627,5.41259c-0.57328,98.02809 -21.78447,199.0622 -5.15948,295.88847c1.14655,7.81819 13.75861,6.01399 13.18534,-1.8042c-7.45258,-98.62949 6.88024,-195.4538 7.45352,-294.08427c0,-0.6014 0,-1.2028 0,-1.2028c3.43965,7.21679 5.73182,14.43358 7.45258,22.85317c1.14749,9.62239 15.47844,6.01399 13.75861,-3.6084l0,0.00002z" stroke="null"/>
   </g>
   <g id="svg_4" stroke="null" xmlns="http://www.w3.org/2000/svg"/>
   <g id="svg_5" stroke="null" xmlns="http://www.w3.org/2000/svg"/>
   <g id="svg_6" stroke="null" xmlns="http://www.w3.org/2000/svg"/>
   <g id="svg_7" stroke="null" xmlns="http://www.w3.org/2000/svg"/>
   <g id="svg_8" stroke="null" xmlns="http://www.w3.org/2000/svg"/>
   <g id="svg_9" stroke="null" xmlns="http://www.w3.org/2000/svg"/>
   <g id="svg_10" stroke="null" xmlns="http://www.w3.org/2000/svg"/>
   <g id="svg_11" stroke="null" xmlns="http://www.w3.org/2000/svg"/>
   <g id="svg_12" stroke="null" xmlns="http://www.w3.org/2000/svg"/>
   <g id="svg_13" stroke="null" xmlns="http://www.w3.org/2000/svg"/>
   <g id="svg_14" stroke="null" xmlns="http://www.w3.org/2000/svg"/>
   <g id="svg_15" stroke="null" xmlns="http://www.w3.org/2000/svg"/>
   <g id="svg_16" stroke="null" xmlns="http://www.w3.org/2000/svg"/>
   <g id="svg_17" stroke="null" xmlns="http://www.w3.org/2000/svg"/>
   <g id="svg_18" stroke="null" xmlns="http://www.w3.org/2000/svg"/>
  </g>
 </g>

</svg>