<?xml version="1.0" standalone="no"?><svg xmlns="http://www.w3.org/2000/svg" viewBox="0 0 1440 320"><path fill="#0099ff" fill-opacity="1" d="M0,256L6.2,245.3C12.3,235,25,213,37,224C49.2,235,62,277,74,277.3C86.2,277,98,235,111,208C123.1,181,135,171,148,170.7C160,171,172,181,185,160C196.9,139,209,85,222,96C233.8,107,246,181,258,197.3C270.8,213,283,171,295,149.3C307.7,128,320,128,332,128C344.6,128,357,128,369,112C381.5,96,394,64,406,74.7C418.5,85,431,139,443,170.7C455.4,203,468,213,480,208C492.3,203,505,181,517,186.7C529.2,192,542,224,554,234.7C566.2,245,578,235,591,213.3C603.1,192,615,160,628,149.3C640,139,652,149,665,181.3C676.9,213,689,267,702,250.7C713.8,235,726,149,738,144C750.8,139,763,213,775,224C787.7,235,800,181,812,160C824.6,139,837,149,849,170.7C861.5,192,874,224,886,250.7C898.5,277,911,299,923,272C935.4,245,948,171,960,128C972.3,85,985,75,997,90.7C1009.2,107,1022,149,1034,170.7C1046.2,192,1058,192,1071,160C1083.1,128,1095,64,1108,42.7C1120,21,1132,43,1145,85.3C1156.9,128,1169,192,1182,213.3C1193.8,235,1206,213,1218,218.7C1230.8,224,1243,256,1255,250.7C1267.7,245,1280,203,1292,170.7C1304.6,139,1317,117,1329,128C1341.5,139,1354,181,1366,208C1378.5,235,1391,245,1403,213.3C1415.4,181,1428,107,1434,69.3L1440,32L1440,0L1433.8,0C1427.7,0,1415,0,1403,0C1390.8,0,1378,0,1366,0C1353.8,0,1342,0,1329,0C1316.9,0,1305,0,1292,0C1280,0,1268,0,1255,0C1243.1,0,1231,0,1218,0C1206.2,0,1194,0,1182,0C1169.2,0,1157,0,1145,0C1132.3,0,1120,0,1108,0C1095.4,0,1083,0,1071,0C1058.5,0,1046,0,1034,0C1021.5,0,1009,0,997,0C984.6,0,972,0,960,0C947.7,0,935,0,923,0C910.8,0,898,0,886,0C873.8,0,862,0,849,0C836.9,0,825,0,812,0C800,0,788,0,775,0C763.1,0,751,0,738,0C726.2,0,714,0,702,0C689.2,0,677,0,665,0C652.3,0,640,0,628,0C615.4,0,603,0,591,0C578.5,0,566,0,554,0C541.5,0,529,0,517,0C504.6,0,492,0,480,0C467.7,0,455,0,443,0C430.8,0,418,0,406,0C393.8,0,382,0,369,0C356.9,0,345,0,332,0C320,0,308,0,295,0C283.1,0,271,0,258,0C246.2,0,234,0,222,0C209.2,0,197,0,185,0C172.3,0,160,0,148,0C135.4,0,123,0,111,0C98.5,0,86,0,74,0C61.5,0,49,0,37,0C24.6,0,12,0,6,0L0,0Z"></path></svg>