<svg width="244" height="234" xmlns="http://www.w3.org/2000/svg" class="illustration styles_illustrationTablet__1DWOa" data-name="#340_web_developer_flatline">

 <g>
  <title>Layer 1</title>
  <ellipse id="svg_1" fill="#111111" ry="7.27" rx="89.05" cy="220.92" cx="92.24"/>
  <rect id="svg_2" fill="#fff" height="51.59" width="63.32" y="152.67" x="177.49"/>
  <path id="svg_3" fill="#0f0f0f" d="m240.81,204.77l-63.32,0a0.5,0.5 0 0 1 -0.5,-0.5l0,-51.6a0.5,0.5 0 0 1 0.5,-0.5l63.32,0a0.51,0.51 0 0 1 0.5,0.5l0,51.6a0.51,0.51 0 0 1 -0.5,0.5zm-62.82,-1l62.32,0l0,-50.6l-62.31,0l-0.01,50.6z"/>
  <path id="svg_4" fill="#0f0f0f" d="m240.81,159.8l-63.32,0a0.5,0.5 0 0 1 -0.5,-0.5a0.5,0.5 0 0 1 0.5,-0.5l63.32,0a0.5,0.5 0 0 1 0.5,0.5a0.51,0.51 0 0 1 -0.5,0.5z"/>
  <path id="svg_5" fill="#fefefe" d="m66.34,56.28a7,7 0 0 1 -5.86,-11.45c-3.82,-1.76 -5.84,-6.28 -5.56,-10.47s2.49,-8 5.25,-11.22c2.27,-2.63 5.12,-5 8.53,-5.65a5.6,5.6 0 0 0 1.86,-0.52a4.77,4.77 0 0 0 1.18,-1.19c2.49,-3.18 5.56,-6.1 9.4,-7.38s8.54,-0.55 11.11,2.58a8.4,8.4 0 0 1 13.84,7.4a14.47,14.47 0 0 1 11.72,10.07c1.43,5.26 -1,11.44 -5.85,13.93c-0.56,0.29 -1.23,0.67 -1.21,1.29a1.87,1.87 0 0 0 0.48,1c1.56,2.23 0.78,5.46 -1,7.48s-4.44,3.09 -7,4.11a3.92,3.92 0 0 1 0.77,4.44a8.36,8.36 0 0 1 -3.32,3.48c-5.56,3.59 -12.44,2.47 -18.67,2.6c-5.75,0.12 -11.46,-3.55 -15.27,-7.71c-0.74,-0.79 -1.33,-2.23 -0.4,-2.79z"/>
  <path id="svg_6" fill="#231f20" d="m88.9,67.35c-1,0 -2,0 -2.92,0c-1.3,0 -2.66,-0.06 -3.94,0c-5.22,0.09 -11,-2.84 -15.66,-7.87a3.43,3.43 0 0 1 -1,-2.51a0.36,0.36 0 0 1 0,-0.11a7.46,7.46 0 0 1 -5.66,-11.86c-3.45,-1.9 -5.6,-6.19 -5.3,-10.67c0.25,-3.83 2.06,-7.7 5.37,-11.52c2.88,-3.32 5.76,-5.22 8.82,-5.81l0.34,-0.06a2.86,2.86 0 0 0 2.36,-1.42c3.14,-4 6.29,-6.46 9.67,-7.59c4.17,-1.39 8.74,-0.42 11.33,2.35a8.91,8.91 0 0 1 14.33,7.72a15,15 0 0 1 11.66,10.32c1.52,5.59 -1.17,12 -6.11,14.51c-0.5,0.25 -0.95,0.53 -0.94,0.83a1.31,1.31 0 0 0 0.29,0.56l0.09,0.13c1.78,2.52 0.77,6.05 -1.08,8.09a17.28,17.28 0 0 1 -6.46,4a4.66,4.66 0 0 1 0.38,4.49a8.64,8.64 0 0 1 -3.47,3.67c-3.71,2.4 -7.91,2.75 -12.1,2.75zm-5.75,-1.08c0.95,0 1.91,0 2.85,0c5,0.1 10.15,0.21 14.42,-2.55a7.71,7.71 0 0 0 3.13,-3.26a3.41,3.41 0 0 0 -0.65,-3.9a0.5,0.5 0 0 1 -0.17,-0.46a0.51,0.51 0 0 1 0.31,-0.39c2.34,-0.94 5,-2 6.77,-4c1.59,-1.75 2.48,-4.75 1,-6.85l-0.09,-0.11a2,2 0 0 1 -0.48,-1.12c0,-1 0.95,-1.48 1.48,-1.75c4.54,-2.34 7,-8.2 5.6,-13.36a14,14 0 0 0 -11.32,-9.64a0.5,0.5 0 0 1 -0.42,-0.56a7.92,7.92 0 0 0 -13,-7a0.49,0.49 0 0 1 -0.37,0.12a0.48,0.48 0 0 1 -0.34,-0.18c-2.25,-2.74 -6.6,-3.74 -10.56,-2.41c-3.19,1.06 -6.19,3.42 -9.17,7.21a5.1,5.1 0 0 1 -1.31,1.31a4.65,4.65 0 0 1 -1.7,0.52l-0.32,0.06c-2.83,0.55 -5.53,2.34 -8.26,5.48c-3.16,3.65 -4.88,7.33 -5.12,10.93c-0.29,4.32 1.87,8.42 5.27,10a0.51,0.51 0 0 1 0.28,0.34a0.5,0.5 0 0 1 -0.11,0.43a6.47,6.47 0 0 0 5.44,10.63a0.49,0.49 0 0 1 0.52,0.35a0.5,0.5 0 0 1 -0.22,0.58a0.43,0.43 0 0 0 -0.22,0.34a2.45,2.45 0 0 0 0.74,1.69c4.42,4.82 10,7.64 14.89,7.54l1.13,0.01z"/>
  <path id="svg_7" fill="#fff" d="m137.76,202.73c2.29,0 19.36,1.85 27.35,5.82s9.72,4.28 8.1,9.64s-15.69,6.68 -26.4,4.66a72.26,72.26 0 0 1 -19.75,-7.18l10.7,-12.94z"/>
  <path id="svg_8" fill="#231f20" d="m156.91,224.28a54.49,54.49 0 0 1 -10.18,-1a73.08,73.08 0 0 1 -19.89,-7.22a0.5,0.5 0 0 1 -0.23,-0.32a0.45,0.45 0 0 1 0.1,-0.37l10.7,-12.94a0.42,0.42 0 0 1 0.34,-0.17l0.1,0c2.79,0 19.46,1.9 27.46,5.87l1.8,0.89c6.41,3.14 8.14,4 6.54,9.3c-1.01,3.36 -7.59,5.96 -16.74,5.96zm-29.14,-8.75a72.34,72.34 0 0 0 19.13,6.87c10.75,2 24.39,0.58 25.88,-4.34c1.37,-4.56 0.38,-5.05 -6.07,-8.21l-1.8,-0.89c-7.63,-3.79 -23.95,-5.72 -26.94,-5.78l-10.2,12.35z"/>
  <path id="svg_9" fill="#fff" d="m140.05,202.68a6.16,6.16 0 0 1 4.61,7c-0.75,5.69 -12.78,5.93 -13.47,6s8.86,-13 8.86,-13z"/>
  <path id="svg_10" fill="#231f20" d="m131.19,216a0.53,0.53 0 0 1 -0.44,-0.26c-0.15,-0.3 -0.39,-0.76 8.93,-13.37a0.45,0.45 0 0 1 0.48,-0.17c0.05,0 5.75,1.43 5,7.46c-0.76,5.79 -11.72,6.3 -13.91,6.34l-0.06,0zm9,-12.83c-2.93,4 -7.29,10 -8.38,11.9c2.74,-0.13 11.75,-0.9 12.36,-5.53a5.6,5.6 0 0 0 -3.94,-6.33l-0.04,-0.04z"/>
  <path id="svg_11" fill="#fff" d="m50.89,215.71c-0.35,0.18 -3.62,4.43 -17.88,6.13s-19.55,4.77 -22.73,-2.72s-1,-12.33 6,-14.47s26.39,-3.91 30.19,-0.33s4.42,11.39 4.42,11.39z"/>
  <path id="svg_12" fill="#231f20" d="m17.32,224.38c-3.53,0 -5.8,-1.18 -7.46,-5.08s-1.91,-7.25 -0.7,-9.84c1.12,-2.4 3.48,-4.17 7,-5.24c6.58,-2 26.57,-4.06 30.63,-0.23c3.89,3.66 4.51,11.36 4.54,11.68a0.48,0.48 0 0 1 -0.22,0.43l-0.14,0.12c-4.11,3.74 -12,5.37 -17.92,6.07c-3.07,0.37 -5.71,0.8 -8,1.18a52.64,52.64 0 0 1 -7.73,0.91zm18.46,-21.66c-6.85,0 -15.15,1.09 -19.33,2.37c-3.28,1 -5.46,2.6 -6.46,4.76c-1.1,2.34 -0.86,5.4 0.71,9.09c2.35,5.55 5.82,5 14.18,3.63c2.34,-0.38 5,-0.81 8.08,-1.18c5.78,-0.69 13.49,-2.27 17.42,-5.85l0,0c-0.14,-1.31 -1,-7.78 -4.23,-10.86c-1.44,-1.42 -5.55,-1.96 -10.37,-1.96z"/>
  <path id="svg_13" fill="#fff" d="m55.44,212.65s-6.47,5.4 -10.78,4.76s-10.27,-3 -7.87,-7.65s17.85,-7.45 17.85,-7.45l0.8,10.34z"/>
  <path id="svg_14" fill="#231f20" d="m45.4,217.92a5.42,5.42 0 0 1 -0.81,-0.06c-3.23,-0.48 -7.13,-1.86 -8.38,-4.31a4.18,4.18 0 0 1 0.17,-4c2.48,-4.82 17.54,-7.57 18.18,-7.69a0.46,0.46 0 0 1 0.36,0.09a0.48,0.48 0 0 1 0.18,0.33l0.8,10.33a0.47,0.47 0 0 1 -0.16,0.39c-0.26,0.21 -5.95,4.92 -10.34,4.92zm8.83,-15.06c-2.65,0.52 -15,3.15 -17,7.11a3.29,3.29 0 0 0 -0.18,3.17c1.1,2.13 4.7,3.37 7.71,3.82c3.67,0.55 9.18,-3.67 10.24,-4.51l-0.77,-9.59z"/>
  <path id="svg_15" fill="#231f20" d="m133.16,167.29s-6.82,26.6 -31.71,31.68s-37.77,3.74 -46.59,-13.06s-3,-27.08 -3,-27.08l78.55,-1.56l2.75,10.02z"/>
  <path id="svg_16" fill="#231f20" d="m80.92,202.08c-12,0 -20.33,-4.18 -26.51,-15.94c-8.84,-16.85 -3.21,-27.13 -3,-27.56a0.5,0.5 0 0 1 0.43,-0.25l78.55,-1.56a0.49,0.49 0 0 1 0.5,0.37l2.72,10a0.57,0.57 0 0 1 0,0.26c-0.07,0.27 -7.18,27 -32.1,32.05c-7.87,1.63 -14.68,2.63 -20.59,2.63zm-28.73,-42.76c-0.78,1.65 -4.72,11.43 3.11,26.36c8.95,17 22,17.72 46,12.8c23.43,-4.78 30.74,-29.23 31.29,-31.19l-2.59,-9.51l-77.81,1.54z"/>
  <path id="svg_17" fill="#07ADEF" d="m46,167.53s-12.87,-41.6 -11.18,-67.67s11.38,-27 24.6,-28.47c5.87,-0.66 37.14,-5.29 48.85,8.49s32.32,78.32 32.32,78.32l-94.59,9.33z"/>
  <path id="svg_18" fill="#fff" d="m92.45,71.46l-2,13.92s-4.38,7.19 -13.15,3.55s-8.94,-10.35 -8.94,-10.35l4.16,-25.72s9.25,-8.3 13.14,-24.16c0,0 7.75,13.52 19,16.56c0,0 -0.75,11.23 -2.76,18.19c-2,6.73 -9.31,7.93 -9.45,8.01z"/>
  <path id="svg_19" fill="#231f20" d="m82,90.45a12.76,12.76 0 0 1 -4.94,-1.06c-9,-3.72 -9.24,-10.51 -9.25,-10.8l4.19,-25.81a0.55,0.55 0 0 1 0.16,-0.3c0.09,-0.08 9.18,-8.38 13,-23.9a0.52,0.52 0 0 1 0.42,-0.37a0.5,0.5 0 0 1 0.5,0.24c0.08,0.14 7.79,13.38 18.68,16.32a0.5,0.5 0 0 1 0.37,0.52c0,0.11 -0.78,11.37 -2.78,18.3c-1.65,5.71 -7,7.67 -9.44,8.27l-2,13.59a0.6,0.6 0 0 1 -0.06,0.19a11,11 0 0 1 -8.85,4.81zm-9,-37.35l-4.14,25.56c0,0.16 0.3,6.34 8.64,9.81c7.79,3.23 12,-2.52 12.48,-3.27l2,-13.81a0.47,0.47 0 0 1 0.25,-0.36a0.78,0.78 0 0 1 0.3,-0.1c2.15,-0.51 7.33,-2.28 8.87,-7.62c1.76,-6.09 2.56,-15.61 2.71,-17.68c-9.4,-2.76 -16.22,-12.45 -18.26,-15.66c-3.8,14.08 -11.77,22.03 -12.85,23.13zm17.46,32.28l0,0z"/>
  <path id="svg_20" fill="#fff" d="m77.91,53.25a6,6 0 0 0 -1.52,-3.5a10.51,10.51 0 0 0 -2.94,-2.12a4.55,4.55 0 0 0 -1.87,-0.65a3.8,3.8 0 0 0 -1.37,0.27a4.68,4.68 0 0 0 -2.56,2a5.45,5.45 0 0 0 -0.53,2.59a11.08,11.08 0 0 0 0.26,2.88a7.3,7.3 0 0 0 9,5.28"/>
  <path id="svg_21" fill="#231f20" d="m74.48,60.71a7.81,7.81 0 0 1 -7.58,-5.9a10.89,10.89 0 0 1 -0.28,-3a6,6 0 0 1 0.59,-2.82a5.14,5.14 0 0 1 2.79,-2.21a4.42,4.42 0 0 1 1.56,-0.3a5,5 0 0 1 2.09,0.71a11.07,11.07 0 0 1 3.07,2.22a6.52,6.52 0 0 1 1.65,3.8a0.51,0.51 0 0 1 -0.46,0.54a0.52,0.52 0 0 1 -0.54,-0.46a5.53,5.53 0 0 0 -1.37,-3.21a9.93,9.93 0 0 0 -2.81,-2a4,4 0 0 0 -1.65,-0.6a3.15,3.15 0 0 0 -1.18,0.24a4.25,4.25 0 0 0 -2.3,1.73a5.09,5.09 0 0 0 -0.46,2.36a9.72,9.72 0 0 0 0.25,2.75a6.81,6.81 0 0 0 8.36,4.92a0.5,0.5 0 0 1 0.61,0.35a0.5,0.5 0 0 1 -0.36,0.61a7.48,7.48 0 0 1 -1.98,0.27z"/>
  <path id="svg_22" fill="#fff" d="m90.48,49.28s3.93,7.75 2.64,8.86s-4.39,-0.11 -4.39,-0.11"/>
  <path id="svg_23" fill="#231f20" d="m91.51,59.11a9.06,9.06 0 0 1 -3,-0.61a0.5,0.5 0 0 1 -0.28,-0.65a0.51,0.51 0 0 1 0.65,-0.28c0.73,0.28 3,0.93 3.87,0.19c0.53,-0.44 -0.79,-4.38 -2.75,-8.26a0.49,0.49 0 0 1 0.22,-0.67a0.51,0.51 0 0 1 0.67,0.22c1.23,2.44 3.95,8.24 2.52,9.47a3,3 0 0 1 -1.9,0.59z"/>
  <ellipse transform="rotate(-85.34 -7.97 202.85)" id="svg_24" fill="#231f20" ry="1.2" rx="1.68" cy="282.29001" cx="154.44"/>
  <ellipse transform="rotate(-85.74 2.87999 217.44)" id="svg_25" fill="#231f20" ry="1.2" rx="1.68" cy="298.59" cx="177.68"/>
  <path id="svg_26" fill="#231f20" d="m89.46,65.31a9.49,9.49 0 0 1 -4.41,-1c-2.39,-1.25 -3.92,-3.64 -4.55,-7.1a0.5,0.5 0 0 1 0.41,-0.58a0.51,0.51 0 0 1 0.58,0.4c0.56,3.14 1.92,5.29 4,6.39c4.2,2.2 10.11,-0.46 10.17,-0.49a0.5,0.5 0 0 1 0.66,0.25a0.49,0.49 0 0 1 -0.25,0.66a17.74,17.74 0 0 1 -6.61,1.47z"/>
  <path id="svg_27" fill="#231f20" d="m92.45,71.46s-9,0.74 -13.64,-2.92c0,0 3.95,12.5 12.25,12.46l1.39,-9.54z"/>
  <path id="svg_28" fill="#231f20" d="m91,81.5c-8.54,0 -12.52,-12.29 -12.69,-12.81a0.51,0.51 0 0 1 0.2,-0.56a0.48,0.48 0 0 1 0.59,0c4.47,3.49 13.2,2.82 13.29,2.81a0.5,0.5 0 0 1 0.53,0.57l-1.39,9.55a0.53,0.53 0 0 1 -0.53,0.44zm-11.2,-11.7c1.27,3.13 4.87,10.38 10.81,10.69l1.23,-8.49c-1.92,0.08 -7.84,0.14 -12.02,-2.2l-0.02,0z"/>
  <path id="svg_29" fill="#07ADEF" d="m49.51,73.71c-18.47,-2.3 -35.81,76.11 -25.73,83.56c15.72,11.63 63.7,-4.25 63.7,-4.25l-4.8,-20.69s-34.63,1.65 -35.26,-5.46s19.35,-40.44 16.55,-45.3s-14.46,-7.86 -14.46,-7.86z"/>
  <path id="svg_30" fill="#231f20" d="m114,132.91a0.44,0.44 0 0 1 -0.45,-0.39c-2.38,-16.72 -7.6,-44.72 -9.29,-46.36a0.46,0.46 0 0 1 0.64,-0.66c2.17,2.11 7.75,34.23 9.55,46.89a0.46,0.46 0 0 1 -0.39,0.52l-0.06,0z"/>
  <polygon id="svg_31" fill="#fff" points="96.33000183105469,172.47000122070312 64.44999694824219,163.5399932861328 123,152.52999877929688 154.69000244140625,165.80999755859375 96.33000183105469,172.47000122070312 "/>
  <path id="svg_32" fill="#231f20" d="m96.33,173a0.3,0.3 0 0 1 -0.13,0l-31.88,-9a0.5,0.5 0 0 1 0,-1l58.55,-11a0.45,0.45 0 0 1 0.28,0l31.69,13.28a0.5,0.5 0 0 1 0.3,0.53a0.5,0.5 0 0 1 -0.44,0.43l-58.31,6.76l-0.06,0zm-29.68,-9.33l29.72,8.33l56.36,-6.43l-29.79,-12.48l-56.29,10.58z"/>
  <path id="svg_33" fill="#fff" d="m77.52,139.48c7,0.77 13.49,1.27 20,4a49.08,49.08 0 0 1 10.46,6a33.69,33.69 0 0 1 4.59,3.92c1.12,1.22 0.76,2.41 -1.12,1.82a22.73,22.73 0 0 1 -6.14,-3a65.14,65.14 0 0 1 11.87,12.67c0.38,0.54 0.75,1.31 0.3,1.79s-1.45,0 -2,-0.5l-9.89,-9.38a31.37,31.37 0 0 1 6.59,7.92c0.25,0.43 0.49,1 0.23,1.39c-0.44,0.73 -1.56,0.18 -2.16,-0.43a71.83,71.83 0 0 1 -8.05,-9.7l5.34,8a1.18,1.18 0 0 1 -1.51,0.73a3.43,3.43 0 0 1 -1.47,-1.16l-6.47,-7.43l3.82,5.26c0.6,0.82 1.2,2 0.51,2.77s-2.25,0 -3.13,-0.78a64.78,64.78 0 0 0 -11.59,-8.43c-1.51,-0.89 -2.8,-2.1 -4.47,-2.61c-2.4,-0.74 -5.4,-0.64 -7.9,-0.92"/>
  <path id="svg_34" fill="#231f20" d="m117,167.36a2.92,2.92 0 0 1 -1.76,-0.86l-3.2,-3c0.21,0.33 0.42,0.67 0.61,1a1.83,1.83 0 0 1 0.23,1.86a1.14,1.14 0 0 1 -0.86,0.56a2.73,2.73 0 0 1 -2,-0.91c-0.66,-0.66 -1.3,-1.33 -1.93,-2a0.45,0.45 0 0 1 0,0.11a1.34,1.34 0 0 1 -0.64,0.89a1.84,1.84 0 0 1 -1.45,0.19a3.78,3.78 0 0 1 -1.68,-1.3l-1.18,-1.35a1.89,1.89 0 0 1 -0.28,2a1.59,1.59 0 0 1 -1.14,0.53a4.32,4.32 0 0 1 -2.72,-1.38a62.86,62.86 0 0 0 -11.5,-8.36c-0.51,-0.3 -1,-0.64 -1.48,-1a10.58,10.58 0 0 0 -2.89,-1.6a23.73,23.73 0 0 0 -5.33,-0.72c-0.86,-0.05 -1.7,-0.1 -2.49,-0.18a0.46,0.46 0 0 1 -0.4,-0.51a0.45,0.45 0 0 1 0.5,-0.4c0.78,0.08 1.6,0.13 2.44,0.18a24.36,24.36 0 0 1 5.55,0.75a11.93,11.93 0 0 1 3.14,1.72c0.46,0.33 0.93,0.65 1.42,0.94a64.73,64.73 0 0 1 11.67,8.48a3.7,3.7 0 0 0 2,1.05a0.69,0.69 0 0 0 0.49,-0.23c0.54,-0.59 -0.2,-1.74 -0.54,-2.21l-3.82,-5.25a0.44,0.44 0 0 1 0.08,-0.62a0.45,0.45 0 0 1 0.63,0l6.48,7.43a2.94,2.94 0 0 0 1.25,1a0.92,0.92 0 0 0 0.71,-0.09a0.45,0.45 0 0 0 0.16,-0.14l-5.21,-7.83a0.45,0.45 0 0 1 0.75,-0.51a72.39,72.39 0 0 0 8,9.64a2,2 0 0 0 1.25,0.64a0.22,0.22 0 0 0 0.19,-0.12c0.11,-0.17 0,-0.49 -0.23,-0.93a30.72,30.72 0 0 0 -4.29,-5.7l-2.23,-2.12a0.46,0.46 0 0 1 0.62,-0.67c0.79,0.68 1.54,1.39 2.26,2.14l7.64,7.25a1.88,1.88 0 0 0 1.15,0.62a0.25,0.25 0 0 0 0.21,-0.1c0.23,-0.24 0,-0.78 -0.33,-1.22a64.78,64.78 0 0 0 -11.78,-12.58a0.46,0.46 0 0 1 0.55,-0.73a22,22 0 0 0 6,2.94c0.7,0.22 1.07,0.13 1.14,0s0,-0.57 -0.49,-1.09a32.21,32.21 0 0 0 -4.53,-3.86a48.35,48.35 0 0 0 -10.36,-5.93c-5.87,-2.45 -11.74,-3.08 -18,-3.75l-1.95,-0.22a0.45,0.45 0 0 1 -0.4,-0.5a0.45,0.45 0 0 1 0.5,-0.4l2,0.21c6.29,0.68 12.22,1.32 18.21,3.82a49.11,49.11 0 0 1 10.56,6a33.78,33.78 0 0 1 4.66,4c0.72,0.78 0.94,1.63 0.58,2.2c-0.21,0.32 -0.77,0.8 -2.18,0.36a21.32,21.32 0 0 1 -2.39,-0.89a65.86,65.86 0 0 1 8.63,9.86c0.69,1 0.78,1.81 0.27,2.37a1.19,1.19 0 0 1 -0.86,0.39l-0.01,0.13z"/>
  <polygon id="svg_35" fill="#fff" points="154.69000244140625,165.80999755859375 169.27999877929688,126.75999450683594 109.69000244140625,127.94000244140625 96.33000183105469,172.47000122070312 154.69000244140625,165.80999755859375 "/>
  <path id="svg_36" fill="#231f20" d="m96.33,173a0.48,0.48 0 0 1 -0.38,-0.18a0.51,0.51 0 0 1 -0.1,-0.46l13.36,-44.53a0.52,0.52 0 0 1 0.47,-0.36l59.59,-1.18a0.51,0.51 0 0 1 0.42,0.21a0.54,0.54 0 0 1 0.06,0.46l-14.59,39a0.51,0.51 0 0 1 -0.42,0.33l-58.35,6.71l-0.06,0zm13.74,-44.54l-13,43.46l57.3,-6.54l14.22,-38.08l-58.52,1.16zm44.62,37.38l0,0z"/>
  <path id="svg_37" fill="#231f20" d="m151.51,166.17s16.17,13.13 10.49,25.17s-109,25.8 -109,25.8l-4.65,-15.74s81.05,-41.4 103.16,-35.23z"/>
  <path id="svg_38" fill="#231f20" d="m53,217.64a0.51,0.51 0 0 1 -0.48,-0.36l-4.65,-15.74a0.48,0.48 0 0 1 0.25,-0.58c0.2,-0.11 20.53,-10.46 43.31,-19.94c30.65,-12.75 50.9,-17.91 60.18,-15.33a0.5,0.5 0 0 1 0.19,0.1a43.84,43.84 0 0 1 7.46,8.17c4.46,6.42 5.54,12.5 3.12,17.6c-5.78,12.14 -105.09,25.51 -109.31,26.07l-0.07,0.01zm-4.06,-16l4.42,14.92c7.22,-1 102.75,-14.18 108.12,-25.45c5.28,-11.12 -9,-23.49 -10.24,-24.5c-21.02,-5.61 -96.24,32.03 -102.24,35.05l-0.06,-0.02z"/>
  <path id="svg_39" fill="#231f20" d="m43,160.14s80.23,32.44 100.12,41l-11.56,17.86s-74.08,-1.45 -95.32,-20.06s-19.83,-49.59 6.76,-38.8z"/>
  <path id="svg_40" fill="#231f20" d="m131.56,219.52l0,0c-0.18,0 -18.79,-0.39 -39.75,-3.05c-28.2,-3.59 -47,-9.35 -55.89,-17.14c-11.12,-9.74 -18.91,-26.84 -12.79,-36.77c2,-3.3 7.34,-8.05 20.08,-2.89l0,0c0.8,0.33 80.46,32.55 100.13,41a0.48,0.48 0 0 1 0.28,0.31a0.52,0.52 0 0 1 -0.06,0.42l-11.56,17.89a0.5,0.5 0 0 1 -0.44,0.23zm-98.41,-61.12c-4.11,0 -7.26,1.58 -9.18,4.68c-4.72,7.67 -0.79,23.77 12.6,35.5c20.21,17.71 89.73,19.81 94.72,19.93l11.1,-17.15c-20.54,-8.8 -98.77,-40.44 -99.57,-40.76l0,0a26.24,26.24 0 0 0 -9.67,-2.2z"/>
  <path id="svg_41" fill="#fff" d="m155,150.22a2.84,2.84 0 0 0 0.58,1.26l1.56,2.33a1.69,1.69 0 0 0 -2.32,-1.16a2.73,2.73 0 0 0 -1.43,2.47a7.86,7.86 0 0 0 0.7,2.91c1.11,2.88 3.62,7.09 7.25,4.91c2.46,-1.48 3.14,-6.7 3.49,-9.3c0.69,-5.12 -0.88,-11.7 -7.46,-10.7a12.66,12.66 0 0 0 2.7,6.91c-1.07,-1.04 -5.4,-2.65 -5.07,0.37z"/>
  <path id="svg_42" fill="#231f20" d="m159.33,164a3.44,3.44 0 0 1 -1.18,-0.2c-2.37,-0.81 -3.85,-3.86 -4.52,-5.61a8.4,8.4 0 0 1 -0.73,-3.08a3.12,3.12 0 0 1 1.71,-2.87a1.89,1.89 0 0 1 0.78,-0.17l-0.22,-0.33a3.25,3.25 0 0 1 -0.66,-1.48a1.82,1.82 0 0 1 1,-2a4.26,4.26 0 0 1 3.1,0.23a13,13 0 0 1 -1.68,-5.48a0.47,0.47 0 0 1 0.39,-0.49a6.32,6.32 0 0 1 5.67,1.56c2.35,2.32 2.74,6.5 2.31,9.65c-0.39,2.88 -1.09,8.05 -3.71,9.63a4.23,4.23 0 0 1 -2.26,0.64zm-3.88,-11a1.19,1.19 0 0 0 -0.47,0.09a2.27,2.27 0 0 0 -1.16,2.06a7.28,7.28 0 0 0 0.66,2.74c0.5,1.28 1.88,4.35 4,5.07a3,3 0 0 0 2.62,-0.39c2.25,-1.35 2.93,-6.43 3.26,-8.87c0.41,-3 0.08,-6.9 -2,-9a5.29,5.29 0 0 0 -4.47,-1.37a12.25,12.25 0 0 0 2.57,6.23a0.45,0.45 0 0 1 -0.05,0.62a0.46,0.46 0 0 1 -0.63,0c-0.67,-0.66 -2.88,-1.6 -3.87,-1.12c-0.22,0.1 -0.5,0.33 -0.43,1.11l0,0a2.71,2.71 0 0 0 0.5,1.06l0.84,1.24a1.78,1.78 0 0 1 0.8,1.29a0.46,0.46 0 0 1 -0.3,0.48a0.45,0.45 0 0 1 -0.53,-0.18l-0.62,-0.92a1.43,1.43 0 0 0 -0.72,-0.14z"/>
  <path id="svg_43" fill="#fff" d="m132.47,197.44a0.63,0.63 0 0 1 -0.19,0c-1.75,-0.68 -43.11,-16.69 -52.43,-22.4a0.52,0.52 0 0 1 -0.17,-0.71a0.51,0.51 0 0 1 0.71,-0.17c9.24,5.66 51.83,22.15 52.26,22.31a0.52,0.52 0 0 1 0.3,0.67a0.51,0.51 0 0 1 -0.48,0.3z"/>
  <ellipse id="svg_44" fill="#1594c7" ry="15.63" rx="16.51" cy="116.51" cx="84.23"/>
  <path id="svg_45" fill="#035677" d="m84.23,132.63c-9.38,0 -17,-7.23 -17,-16.12s7.63,-16.13 17,-16.13s17,7.24 17,16.13s-7.62,16.12 -17,16.12zm0,-31.25c-8.83,0 -16,6.79 -16,15.13s7.18,15.12 16,15.12s16,-6.78 16,-15.12s-7.17,-15.13 -16,-15.13z"/>
  <path id="svg_46" fill="#fff" d="m75.52,121.59l-4,-2.34l0,-3.09l4,-2.34q2,-1.15 4,-2.34l0,3.74c-0.71,0.44 -1.42,0.87 -2.13,1.28s-1.41,0.83 -2.13,1.28l2.13,1.18l2.13,1.19l0,3.78l-4,-2.34z"/>
  <path id="svg_47" fill="#fff" d="m80.65,124.92l4.71,-17.92l2.46,1.11l-4.73,17.89l-2.44,-1.08z"/>
  <path id="svg_48" fill="#fff" d="m93,113.82l4,2.34l0,3.09l-4,2.34l-4,2.34l0,-3.78l2.13,-1.19l2.13,-1.18c-0.71,-0.45 -1.42,-0.88 -2.13,-1.28s-1.41,-0.84 -2.13,-1.28l0,-3.74l4,2.34z"/>
  <path id="svg_49" fill="#231f20" d="m50,160a0.5,0.5 0 0 1 -0.06,-1l24,-2.91l3.81,-19.21l-30.75,-2.6a0.49,0.49 0 0 1 -0.37,-0.21a0.48,0.48 0 0 1 -0.08,-0.42l12.64,-47.06a0.5,0.5 0 0 1 1,0.26l-12.49,46.49l30.67,2.54a0.53,0.53 0 0 1 0.36,0.2a0.51,0.51 0 0 1 0.09,0.4l-4,20.11a0.51,0.51 0 0 1 -0.43,0.4l-24.39,2.95l0,0.06z"/>
  <rect id="svg_50" fill="#e6e7e8" height="5.16" width="49.86" y="24.2" x="132.3"/>
  <rect id="svg_51" fill="#e6e7e8" height="5.16" width="49.86" y="24.2" x="187.96"/>
  <rect id="svg_52" fill="#07ADEF" height="5.16" width="29.27" y="33.04" x="152.89"/>
  <rect id="svg_53" fill="#e6e7e8" height="5.16" width="44.29" y="33.04" x="187.96"/>
  <rect id="svg_54" fill="#e6e7e8" height="5.16" width="36.89" y="41.89" x="145.27"/>
  <rect id="svg_55" fill="#e6e7e8" height="5.16" width="20.8" y="41.89" x="187.96"/>
  <rect id="svg_56" fill="#e6e7e8" height="5.16" width="21.52" y="50.73" x="160.65"/>
  <rect id="svg_57" fill="#07ADEF" height="5.16" width="40.74" y="50.73" x="187.96"/>
  <rect id="svg_58" fill="#07ADEF" height="5.16" width="6.85" y="59.58" x="175.31"/>
  <rect id="svg_59" fill="#e6e7e8" height="5.16" width="27.37" y="59.58" x="187.96"/>
  <rect id="svg_60" fill="#07ADEF" height="5.91" width="45.82" y="95.94" x="135.48"/>
  <rect id="svg_61" fill="#e6e7e8" height="5.91" width="28.14" y="95.94" x="188.66"/>
  <rect id="svg_62" fill="#e6e7e8" height="5.91" width="37.2" y="106.06" x="144.09"/>
  <rect id="svg_63" fill="#e6e7e8" height="5.91" width="40.97" y="106.06" x="188.66"/>
  <rect id="svg_64" fill="#e6e7e8" height="5.91" width="18.6" y="116.19" x="162.69"/>
  <rect id="svg_65" fill="#e6e7e8" height="5.91" width="48.72" y="116.19" x="188.66"/>
  <rect id="svg_66" fill="#e6e7e8" height="5.91" width="6.97" y="126.32" x="174.32"/>
  <rect id="svg_67" fill="#07ADEF" height="5.91" width="51.78" y="126.32" x="188.66"/>
  <rect id="svg_68" fill="#e6e7e8" height="5.91" width="34.78" y="136.44" x="188.66"/>
  <path id="svg_69" fill="#e6e7e8" d="m206.29,83.12l-3.76,-1.5l0,-2l3.76,-1.5l3.76,-1.5l0,2.38c-0.68,0.29 -1.35,0.56 -2,0.82s-1.34,0.53 -2,0.82l2,0.76l2,0.76l0,2.42l-3.76,-1.46z"/>
  <path id="svg_70" fill="#e6e7e8" d="m211.16,85.25l4.46,-11.47l2.34,0.7l-4.49,11.52l-2.31,-0.75z"/>
  <path id="svg_71" fill="#e6e7e8" d="m222.82,78.15c1.25,0.5 2.51,1 3.76,1.5l0,2l-3.76,1.5l-3.76,1.5l0,-2.45l2,-0.76l2,-0.76c-0.68,-0.29 -1.35,-0.56 -2,-0.82s-1.34,-0.53 -2,-0.82l0,-2.39l3.76,1.5z"/>
  <path id="svg_72" fill="#e6e7e8" d="m133.61,11.9a1.53,1.53 0 0 1 0.15,-0.67a1.57,1.57 0 0 1 0.39,-0.56a1.85,1.85 0 0 1 0.57,-0.36a1.87,1.87 0 0 1 0.71,-0.14a1.75,1.75 0 0 1 0.67,0.14a1.92,1.92 0 0 1 0.56,0.36a1.85,1.85 0 0 1 0.38,0.56a1.67,1.67 0 0 1 0.14,0.67a1.72,1.72 0 0 1 -0.14,0.68a1.83,1.83 0 0 1 -0.38,0.53a1.86,1.86 0 0 1 -1.23,0.5a1.87,1.87 0 0 1 -0.71,-0.14a1.68,1.68 0 0 1 -0.57,-0.36a1.55,1.55 0 0 1 -0.39,-0.53a1.57,1.57 0 0 1 -0.15,-0.68zm0,5.86a1.73,1.73 0 0 1 0.54,-1.22a1.7,1.7 0 0 1 0.57,-0.37a1.87,1.87 0 0 1 0.71,-0.13a1.74,1.74 0 0 1 0.67,0.13a1.76,1.76 0 0 1 0.56,0.37a1.8,1.8 0 0 1 0.38,0.55a1.7,1.7 0 0 1 0,1.35a1.75,1.75 0 0 1 -0.38,0.54a1.92,1.92 0 0 1 -0.56,0.36a1.74,1.74 0 0 1 -0.67,0.13a1.87,1.87 0 0 1 -0.71,-0.13a1.85,1.85 0 0 1 -0.57,-0.36a1.5,1.5 0 0 1 -0.39,-0.54a1.54,1.54 0 0 1 -0.15,-0.68z"/>
  <path id="svg_73" fill="#e6e7e8" d="m192,180.16a1.77,1.77 0 0 0 1.11,-0.32c0.28,-0.21 0.41,-0.65 0.41,-1.33l0,-3.1a5.81,5.81 0 0 1 0.2,-1.52a3.81,3.81 0 0 1 0.62,-1.28a3.2,3.2 0 0 1 1.08,-0.88a3.54,3.54 0 0 1 1.6,-0.33l2.25,0l0,3.22l-0.79,0a1,1 0 0 0 -0.93,0.44a1.92,1.92 0 0 0 -0.25,1l0,3.16a2.91,2.91 0 0 1 -0.21,1.17a2.69,2.69 0 0 1 -0.5,0.78a2.07,2.07 0 0 1 -0.65,0.47a1.72,1.72 0 0 1 -0.63,0.19l0,0a2.66,2.66 0 0 1 0.63,0.2a2,2 0 0 1 0.65,0.45a2.76,2.76 0 0 1 0.71,1.95l0,3.17a1.86,1.86 0 0 0 0.25,1a1,1 0 0 0 0.93,0.45l0.79,0l0,3.22l-2.25,0a3.54,3.54 0 0 1 -1.6,-0.33a3.2,3.2 0 0 1 -1.08,-0.88a3.91,3.91 0 0 1 -0.62,-1.28a5.94,5.94 0 0 1 -0.2,-1.53l0,-3.1a1.6,1.6 0 0 0 -0.41,-1.32a1.77,1.77 0 0 0 -1.11,-0.32l0,-3.35z"/>
  <path id="svg_74" fill="#e6e7e8" d="m226.54,183.49a1.8,1.8 0 0 0 -1.12,0.32a1.63,1.63 0 0 0 -0.41,1.32l0,3.1a5.94,5.94 0 0 1 -0.2,1.53a3.72,3.72 0 0 1 -0.62,1.28a3,3 0 0 1 -1.08,0.88a3.54,3.54 0 0 1 -1.6,0.33l-2.25,0l0,-3.25l0.8,0a1,1 0 0 0 0.92,-0.45a1.86,1.86 0 0 0 0.25,-1l0,-3.17a2.9,2.9 0 0 1 0.21,-1.16a2.69,2.69 0 0 1 0.51,-0.79a2,2 0 0 1 0.64,-0.45a2.88,2.88 0 0 1 0.64,-0.2l0,0a1.82,1.82 0 0 1 -0.64,-0.19a2,2 0 0 1 -0.64,-0.47a2.51,2.51 0 0 1 -0.51,-0.78a2.91,2.91 0 0 1 -0.21,-1.17l0,-3.17a1.92,1.92 0 0 0 -0.25,-1a1,1 0 0 0 -0.92,-0.44l-0.8,0l0,-3.16l2.25,0a3.54,3.54 0 0 1 1.6,0.33a3,3 0 0 1 1.08,0.88a3.63,3.63 0 0 1 0.62,1.28a5.81,5.81 0 0 1 0.2,1.52l0,3.1a1.64,1.64 0 0 0 0.41,1.33a1.8,1.8 0 0 0 1.12,0.32l0,3.33z"/>
 </g>
</svg>