<svg id="Layer_1" height="512" viewBox="0 0 512 512" width="512" xmlns="http://www.w3.org/2000/svg" data-name="Layer 1"><path d="m101.886 235.086h-20.471a26.222 26.222 0 0 1 0-52.443h8.119v12h-8.119a14.222 14.222 0 0 0 0 28.443h20.471z" fill="#6d7486"/><path d="m430.585 235.086h-20.356v-12h20.356a14.222 14.222 0 0 0 0-28.443h-8.008v-12h8.01a26.222 26.222 0 0 1 0 52.443z" fill="#6d7486"/><path d="m417.21 492.99a2.247 2.247 0 0 1 -2.13 3.01l-26.53-.23a2.25 2.25 0 0 1 -2.12-1.54l-21.66-65.6a5.429 5.429 0 0 0 -5.15-3.72h-206.74a5.42 5.42 0 0 0 -5.15 3.72l-21.67 65.6a2.247 2.247 0 0 1 -2.11 1.54l-26.53.23a2.249 2.249 0 0 1 -2.14-3.01l59.34-165.58a152.54 152.54 0 0 0 21.44 15.43v.01l-17.3 52.37a5.43 5.43 0 0 0 5.15 7.13h184.67a5.425 5.425 0 0 0 5.15-7.13l-17.36-52.57a154.219 154.219 0 0 0 21.41-15.48z" fill="#c79a83"/><path d="m97.29 198.4h317.53a181.146 181.146 0 0 1 -2.6 30.69c-6.72 39.24-26.21 73.73-54.44 98.08a157.657 157.657 0 0 1 -181.72 15.68v-.01a152.54 152.54 0 0 1 -21.44-15.43c-28.39-24.36-47.98-58.94-54.73-98.32a181.146 181.146 0 0 1 -2.6-30.69z" fill="#a4bdc1"/><path d="m206.06 342.85v-.01a152.54 152.54 0 0 1 -21.44-15.43c-28.39-24.36-47.98-58.94-54.73-98.32a181.146 181.146 0 0 1 -2.6-30.69h-30a181.146 181.146 0 0 0 2.6 30.69c6.75 39.38 26.34 73.96 54.73 98.32a152.54 152.54 0 0 0 21.44 15.43v.01a155.157 155.157 0 0 0 79.99 21.69c5.078 0 10.076-.249 15-.7a153.885 153.885 0 0 1 -64.99-20.99z" fill="#819496"/><path d="m414.82 178.89h-317.53a9.755 9.755 0 1 0 0 19.51h317.53a9.755 9.755 0 1 0 0-19.51z" fill="#84999b"/><path d="m117.53 188.64a9.748 9.748 0 0 1 9.76-9.75h-30a9.755 9.755 0 1 0 0 19.51h30a9.76 9.76 0 0 1 -9.76-9.76z" fill="#677575"/><path d="m182.253 314.917a5.971 5.971 0 0 1 -3.448-1.095c-2.222-1.564-4.42-3.228-6.532-4.946a6 6 0 0 1 7.571-9.311c1.9 1.544 3.873 3.039 5.869 4.445a6 6 0 0 1 -3.46 10.907z" fill="#f4f8fc"/><path d="m164.447 299.315a5.983 5.983 0 0 1 -4.408-1.927 117.744 117.744 0 0 1 -27.931-52.072 6 6 0 1 1 11.663-2.822 105.716 105.716 0 0 0 25.081 46.749 6 6 0 0 1 -4.405 10.072z" fill="#f4f8fc"/><g fill="#b0b5ca"><path d="m203.464 153.1a6 6 0 0 1 -6-6c0-4.343-1.159-6.177-2.913-8.954-2.124-3.363-4.767-7.547-4.767-15.364s2.643-12 4.767-15.362c1.754-2.777 2.913-4.611 2.913-8.955s-1.159-6.177-2.913-8.953c-2.124-3.362-4.767-7.546-4.767-15.361s2.643-12 4.767-15.36c1.754-2.776 2.913-4.611 2.913-8.953a6 6 0 1 1 12 0c0 7.815-2.644 12-4.768 15.362-1.754 2.776-2.912 4.61-2.912 8.951s1.158 6.176 2.912 8.952c2.124 3.362 4.768 7.546 4.768 15.362s-2.644 12-4.768 15.363c-1.754 2.777-2.912 4.612-2.912 8.954s1.158 6.178 2.913 8.955c2.124 3.363 4.767 7.547 4.767 15.363a6 6 0 0 1 -6 6z"/><path d="m259.84 119.262a6 6 0 0 1 -6-6c0-4.343-1.159-6.177-2.913-8.954-2.124-3.363-4.767-7.547-4.767-15.364s2.643-12 4.767-15.362c1.754-2.777 2.913-4.611 2.913-8.955s-1.159-6.177-2.913-8.953c-2.124-3.363-4.767-7.546-4.767-15.362s2.644-12 4.767-15.36c1.754-2.776 2.913-4.61 2.913-8.952a6 6 0 0 1 12 0c0 7.815-2.644 12-4.767 15.36-1.754 2.777-2.913 4.611-2.913 8.952s1.159 6.177 2.913 8.954c2.124 3.362 4.767 7.545 4.767 15.361s-2.643 12-4.767 15.363c-1.754 2.778-2.913 4.612-2.913 8.954s1.159 6.178 2.913 8.955c2.124 3.363 4.767 7.547 4.767 15.363a6 6 0 0 1 -6 6z"/><path d="m316.216 153.1a6 6 0 0 1 -6-6c0-4.343-1.158-6.177-2.912-8.954-2.124-3.363-4.768-7.547-4.768-15.364s2.643-12 4.767-15.362c1.755-2.777 2.913-4.611 2.913-8.955s-1.158-6.177-2.912-8.953c-2.124-3.362-4.768-7.546-4.768-15.361s2.644-12 4.768-15.36c1.754-2.776 2.912-4.611 2.912-8.953a6 6 0 1 1 12 0c0 7.815-2.643 12-4.767 15.362-1.754 2.776-2.913 4.61-2.913 8.951s1.159 6.176 2.913 8.952c2.124 3.362 4.767 7.546 4.767 15.362s-2.643 12-4.767 15.363c-1.754 2.777-2.913 4.612-2.913 8.954s1.159 6.178 2.913 8.955c2.124 3.363 4.767 7.547 4.767 15.363a6 6 0 0 1 -6 6z"/></g></svg>