<svg id="Layer_1" height="512" viewBox="0 0 512 512" width="512" xmlns="http://www.w3.org/2000/svg" data-name="Layer 1"><path d="m216.39 152.37c0 .53-.02 1.06-.07 1.59-.13 1.4-.27 2.89-.44 4.45-.36 3.48-.82 7.34-1.42 11.51-22.87 7.81-39.21-3.79-39.21-3.79q1.2-7.71 2.06-15.56c1.26-11.61 13.28-19.32 25.08-15.99a18.727 18.727 0 0 1 14 17.79z" fill="#b0b5ca"/><path d="m214.46 169.92c-.66 4.75-1.49 9.89-2.52 15.32h-.01c-1.39 7.33-3.15 15.17-5.37 23.28-18.97 9.36-39.31-5.06-39.31-5.06h-.01a337.89 337.89 0 0 0 8.01-37.33s16.34 11.6 39.21 3.79z" fill="#6d7486"/><path d="m206.56 208.52a237.231 237.231 0 0 1 -15.87 42.47h-.01c-25.07 3.74-35.97-10.83-35.97-10.83h-.01a307.408 307.408 0 0 0 12.54-36.7h.01s20.34 14.42 39.31 5.06z" fill="#b0b5ca"/><path d="m164.2 289.76q-2.955 3.12-6.13 6.05a56.743 56.743 0 0 1 -22.16 12.55 60.544 60.544 0 0 1 -34.07.19c-.23-.06-.45-.13-.68-.19 11.12-3.4 22.87-14.35 33.78-30.58 0 0 6.2 16.18 29.26 11.98z" fill="#b0b5ca"/><path d="m190.68 250.99h.01a158.2 158.2 0 0 1 -26.48 38.77h-.01c-23.06 4.2-29.26-11.98-29.26-11.98a218.447 218.447 0 0 0 19.76-37.62h.01s10.9 14.57 35.97 10.83z" fill="#6d7486"/><path d="m14.14 383.38a23.844 23.844 0 0 1 -2.76-7.21s-2.85-9.22 6.96-22.3c0 0 27.29 29.49 93.91 6.41 73.91-25.6 125.6-1.13 125.6-1.13-6.31 5.18-13.14 10.82-20.62 17.02-60.63 50.21-181.84 44.21-203.09 7.22z" fill="#636096"/><path d="m335.4 288.91c-36.94 22-56.34 36.4-97.55 70.24 0 0-51.69-24.47-125.6 1.13-66.62 23.08-93.91-6.41-93.91-6.41 9.79-13.09 32.24-30.04 82.82-45.51.23.06.45.13.68.19a60.544 60.544 0 0 0 34.07-.19s31.34 28.47 126.03-33.53c44.43-29.1 73.46 14.08 73.46 14.08z" fill="#ea7288"/><path d="m342.85 130.74c-.08.82-1.53 17.46-1.7 39.18-.3 37 3.12 88.73 23.39 102.06-11 6.28-20.54 11.81-29.14 16.93 0 0-29.03-43.18-73.46-14.08-94.69 62-126.03 33.53-126.03 33.53a56.743 56.743 0 0 0 22.16-12.55q3.18-2.925 6.13-6.05h.01a158.2 158.2 0 0 0 26.48-38.77 237.231 237.231 0 0 0 15.87-42.47c2.22-8.11 3.98-15.95 5.37-23.28h.01c1.25 0 100.02-.35 130.91-54.5z" fill="#636096"/><path d="m342.85 130.74c-30.89 54.15-129.66 54.5-130.91 54.5 1.03-5.43 1.86-10.57 2.52-15.32.6-4.17 1.06-8.03 1.42-11.51 0 0 34.91 2.73 73.9-52.32 14.97-21.13 38.48-16.64 61.78-3.07a69.367 69.367 0 0 1 -8.71 27.72z" fill="#5fa8ed"/><path d="m381.63 124.94c-1.63 37.79-40.48 44.98-40.48 44.98.17-21.72 1.62-38.36 1.7-39.18a69.367 69.367 0 0 0 8.71-27.72 208.878 208.878 0 0 1 30.07 21.92z" fill="#5fcda4"/><path d="m425.8 169.92s29.02 50.79-48.06 94.54q-6.945 3.945-13.2 7.52c-20.27-13.33-23.69-65.06-23.39-102.06 0 0 38.85-7.19 40.48-44.98a402.569 402.569 0 0 1 44.17 44.98z" fill="#ea7288"/><path d="m425.8 169.92s29.02 50.79-48.06 94.54q-6.945 3.945-13.2 7.52c-11 6.28-20.54 11.81-29.14 16.93-36.94 22-56.34 36.4-97.55 70.24-6.31 5.18-13.14 10.82-20.62 17.02-60.63 50.21-181.84 44.21-203.09 7.22.53 1.81 19.31 63.08 143.74 43.54 58.93-9.25 98.77-38.56 143.43-76.18 65.52-55.19 76.55-29.64 136.6-75.92 71.56-55.14-12.11-104.91-12.11-104.91z" fill="#ccd3df"/><circle cx="294.39" cy="219.17" fill="#5fcda4" r="26.71"/><path d="m119.16 321.375c.23.06.45.145.68.2a60.546 60.546 0 0 0 34.07-.16 58.034 58.034 0 0 0 14.992-6.937c-23.71 2.3-32.992-6.123-32.992-6.123a60.544 60.544 0 0 1 -34.07.19c-.23-.06-.45-.13-.68-.19-50.58 15.47-73.03 32.42-82.82 45.51 0 0 6.086 6.572 19.518 11.082 10.515-12.795 33.164-28.847 81.302-43.572z" fill="#c46277"/><path d="m232.478 182.675a14.9 14.9 0 0 1 11.267-12.444c13.085-3.073 37.624-13.851 64.035-51.141 10.964-15.476 26.511-17.2 43.2-11.687.23-1.436.431-2.893.581-4.383-23.3-13.57-46.81-18.06-61.78 3.07-38.99 55.05-73.9 52.32-73.9 52.32-.36 3.48-.82 7.34-1.42 11.51-.66 4.75-1.49 9.89-2.52 15.32.35 0 8.346-.028 20.353-1.256.056-.4.113-.8.167-1.184z" fill="#5793c4"/><path d="m32 396.38a36.655 36.655 0 0 1 -2.69-7.206s-2.78-9.216 7.03-22.3c.473-.632.985-1.276 1.518-1.926-13.432-4.506-19.518-11.078-19.518-11.078-9.81 13.08-7.03 22.3-7.03 22.3a36.691 36.691 0 0 0 2.69 7.21v.01c4 6.741 11.146 12.446 20.685 16.976a28.526 28.526 0 0 1 -2.685-3.976z" fill="#4a4a70"/><path d="m182.2 303h.01a168.82 168.82 0 0 0 26.48-38.95 238.851 238.851 0 0 0 15.87-42.65c2.22-8.11 3.98-15.4 5.37-23.4h.01c.946-4.592 1.721-9.676 2.353-14.136a195.853 195.853 0 0 1 -20.353 1.136h-.01c-1.39 8-3.15 15.29-5.37 23.4a238.851 238.851 0 0 1 -15.87 42.65 168.82 168.82 0 0 1 -26.48 38.95h-.01q-2.955 3-6.13 5.93a56.61 56.61 0 0 1 -22.16 12.49s9.282 8.394 32.992 6.093a54.431 54.431 0 0 0 7.168-5.568c2.12-1.945 4.16-3.945 6.13-5.945z" fill="#4a4a70"/><g fill="#d4e1f4"><path d="m477.946 80.85h-67.152a6 6 0 0 1 0-12h67.152a6 6 0 0 1 0 12z"/><path d="m388.539 80.85h-8.939a6 6 0 0 1 0-12h8.944a6 6 0 0 1 0 12z"/><path d="m493.769 443.15h-103.809a6 6 0 1 1 0-12h103.809a6 6 0 0 1 0 12z"/><path d="m362.659 443.15h-127a6 6 0 0 1 0-12h127a6 6 0 0 1 0 12z"/><path d="m477.946 394.769h-21.916a6 6 0 0 1 0-12h21.916a6 6 0 0 1 0 12z"/><path d="m428.416 394.769h-116.869a6 6 0 0 1 0-12h116.869a6 6 0 0 1 0 12z"/><path d="m501 343.565h-93.22a6 6 0 0 1 0-12h93.22a6 6 0 0 1 0 12z"/></g></svg>