<svg id="Layer_1" height="512" viewBox="0 0 512 512" width="512" xmlns="http://www.w3.org/2000/svg" data-name="Layer 1"><g fill="#b0b5ca"><path d="m286 431.424a6 6 0 0 0 -6 6v45.969a6 6 0 1 0 12 0v-45.969a6 6 0 0 0 -6-6z"/><path d="m225 431.424a6 6 0 0 0 -6 6v45.969a6 6 0 1 0 12 0v-45.969a6 6 0 0 0 -6-6z"/><path d="m164 431.424a6 6 0 0 0 -6 6v45.969a6 6 0 1 0 12 0v-45.969a6 6 0 0 0 -6-6z"/><path d="m347 431.424a6 6 0 0 0 -6 6v45.969a6 6 0 1 0 12 0v-45.969a6 6 0 0 0 -6-6z"/><path d="m225 22.607a6 6 0 0 0 -6 6v45.969a6 6 0 1 0 12 0v-45.969a6 6 0 0 0 -6-6z"/><path d="m286 22.607a6 6 0 0 0 -6 6v45.969a6 6 0 1 0 12 0v-45.969a6 6 0 0 0 -6-6z"/><path d="m347 22.607a6 6 0 0 0 -6 6v45.969a6 6 0 1 0 12 0v-45.969a6 6 0 0 0 -6-6z"/><path d="m164 22.607a6 6 0 0 0 -6 6v45.969a6 6 0 0 0 12 0v-45.969a6 6 0 0 0 -6-6z"/><path d="m484 220h-45.968a6 6 0 1 0 0 12h45.968a6 6 0 0 0 0-12z"/><path d="m484 280h-45.968a6 6 0 1 0 0 12h45.968a6 6 0 0 0 0-12z"/><path d="m484 341h-45.968a6 6 0 1 0 0 12h45.968a6 6 0 0 0 0-12z"/><path d="m438.032 171h45.968a6 6 0 0 0 0-12h-45.968a6 6 0 1 0 0 12z"/><path d="m73.968 280h-45.968a6 6 0 0 0 0 12h45.968a6 6 0 1 0 0-12z"/><path d="m73.968 220h-45.968a6 6 0 0 0 0 12h45.968a6 6 0 1 0 0-12z"/><path d="m28 171h45.968a6 6 0 1 0 0-12h-45.968a6 6 0 0 0 0 12z"/><path d="m73.968 341h-45.968a6 6 0 0 0 0 12h45.968a6 6 0 1 0 0-12z"/></g><path d="m438.1 129.54v253.41a56 56 0 0 1 -56 56h-253.41a56 56 0 0 1 -56-56v-253.41a56 56 0 0 1 56-56h253.41a56.01 56.01 0 0 1 56 56z" fill="#6994fe"/><path d="m395.93 155.71v211.08a30 30 0 0 1 -30 30h-221.08a30 30 0 0 1 -30-30v-221.08a30 30 0 0 1 30-30h211.08a40 40 0 0 1 40 40z" fill="#a5e2fb"/><path d="m351.69 179.71v152.58a20 20 0 0 1 -20 20h-152.59a19.994 19.994 0 0 1 -20-20v-152.58a19.994 19.994 0 0 1 20-20h152.59a20 20 0 0 1 20 20z" fill="#6d7486"/><path d="m103 382.95v-253.41a55.349 55.349 0 0 1 55.69-55.54h-30a55.349 55.349 0 0 0 -55.69 55.54v253.41a55.776 55.776 0 0 0 55.69 56.05h30a55.776 55.776 0 0 1 -55.69-56.05z" fill="#5d81c9"/><path d="m94.282 234.913a6 6 0 0 1 -6-6v-75.807a6 6 0 0 1 12 0v75.807a6 6 0 0 1 -6 6z" fill="#f4f8fc"/><path d="m94.282 138.726a6 6 0 0 1 -6-6v-4.834a6 6 0 0 1 12 0v4.834a6 6 0 0 1 -6 6z" fill="#f4f8fc"/></svg>