<svg width="392" height="247" xmlns="http://www.w3.org/2000/svg" data-name="Layer 1">

 <g>
  <title>Layer 1</title>
  <path id="svg_1" fill="#496275" d="m34,143.184l0,-73.184l-12,0l0,72.206l-11.01,31.794l0.01,0l33,0l0.6,-0.21l-10.6,-30.606z"/>
  <path id="svg_4" fill="#556d8d" d="m334.19,185.36l0,32.11l-5.44,1.36l-43.81,10.98c-0.23,0.06 -0.47,0.12 -0.7,0.17a324.478,324.478 0 0 1 -97.63,8.98a324.355,324.355 0 0 1 -59.58,-9.15l-44.25,-11.09l-4.99,-1.25l0,-32.11l49.24,12.33a324.8,324.8 0 0 0 157.91,0l49.25,-12.33z"/>
  <path id="svg_5" fill="#496275" d="m78,90l0,95.36l49.135,12.33a324.209,324.209 0 0 0 157.763,0l49.102,-12.33l0,-95.36l-256,0z"/>
  <path id="svg_7" fill="#556d8d" d="m44.6,173.79l7.35,21.21l-48.24,0l7.28,-21l0.01,0l33,0l0.6,-0.21z"/>
  <path id="svg_8" fill="#556d8d" d="m205.99,7l-183.3,63.22l2.31,0.85l180.99,66.47l183.3,-67.32l-183.3,-63.22z"/>
  <path id="svg_9" fill="#f4f8fc" d="m101.239,176.516a6,6 0 0 1 -6,-6l0,-27.8a6,6 0 0 1 12,0l0,27.8a6,6 0 0 1 -6,6z"/>
  <path id="svg_10" fill="#f4f8fc" d="m101.239,130.168a6,6 0 0 1 -6,-6l0,-3.339a6,6 0 1 1 12,0l0,3.339a6,6 0 0 1 -6,6z"/>
  <path id="svg_11" fill="#3f556d" d="m107.79,192.872l-30,-7.512l0,32.11l4.99,1.25l25.01,6.268l0,-32.116z"/>
  <path id="svg_12" fill="#364c59" d="m78,90l0,95.36l30,7.528l0,-102.888l-30,0z"/>
  <path id="svg_13" fill="#3f556d" d="m230.99,15.622l-25,-8.622l-183.3,63.22l2.31,0.85l180.99,66.47l25,-9.182l-143,-52.518a5,5 0 0 1 0.049,-9.4l142.951,-50.818z"/>
 </g>
</svg>