<svg id="Layer_1" height="512" viewBox="0 0 512 512" width="512" xmlns="http://www.w3.org/2000/svg" data-name="Layer 1"><path d="m434.71 39.67v329.44h-119.14v-329.44z" fill="#3090fc"/><path d="m315.57 39.67v329.44h-119.14v-329.44z" fill="#fcca3d"/><path d="m196.43 39.67v329.44h-119.14v-329.44z" fill="#ff5576"/><path d="m77.29 39.67h30v329.44h-30z" fill="#ea426a"/><path d="m196.43 39.67h30v329.44h-30z" fill="#dba92e"/><path d="m315.57 39.67h30v329.44h-30z" fill="#2488e2"/><path d="m392 418.44h42.5v53.89h-42.5z" fill="#8ab1c4"/><path d="m77.5 418.44h42.5v53.89h-42.5z" fill="#8ab1c4"/><path d="m31 369h450v50h-450z" fill="#b3d1e7"/><path d="m339.78 70.61h70.73v166.74h-70.73z" fill="#fbedce"/><path d="m375.14 272.57a32.705 32.705 0 1 1 -32.7 32.7 32.708 32.708 0 0 1 32.7-32.7z" fill="#49bdff"/><path d="m220.64 70.61h70.72v166.74h-70.72z" fill="#cae6ee"/><path d="m256 272.57a32.705 32.705 0 1 1 -32.7 32.7 32.7 32.7 0 0 1 32.7-32.7z" fill="#ed8115"/><path d="m101.49 70.61h70.73v166.74h-70.73z" fill="#fff0b3"/><path d="m136.86 272.57a32.705 32.705 0 1 1 -32.7 32.7 32.7 32.7 0 0 1 32.7-32.7z" fill="#ad2a34"/><path d="m31 369h31v50h-31z" fill="#def2ff"/><path d="m339.78 70.61h31v166.74h-31z" fill="#e5d2ac"/><path d="m373.44 305.27a32.69 32.69 0 0 1 17.2-28.8 32.706 32.706 0 1 0 0 57.6 32.707 32.707 0 0 1 -17.2-28.8z" fill="#80d8ff"/><path d="m220.64 70.61h31v166.74h-31z" fill="#abd3dd"/><path d="m254.3 305.27a32.692 32.692 0 0 1 17.2-28.8 32.706 32.706 0 1 0 0 57.6 32.71 32.71 0 0 1 -17.2-28.8z" fill="#ff9f48"/><path d="m101.49 70.61h31v166.74h-31z" fill="#e8d891"/><path d="m135.16 305.27a32.692 32.692 0 0 1 17.2-28.8 32.706 32.706 0 1 0 0 57.6 32.71 32.71 0 0 1 -17.2-28.8z" fill="#c64757"/><g fill="#ccba6d"><path d="m126.917 116.385h-7.936a6 6 0 0 1 0-12h7.936a6 6 0 0 1 0 12z"/><path d="m154.738 116.385h-7.938a6 6 0 0 1 0-12h7.936a6 6 0 0 1 0 12z"/><path d="m126.917 141.165h-7.936a6 6 0 0 1 0-12h7.936a6 6 0 0 1 0 12z"/><path d="m154.738 141.165h-7.938a6 6 0 0 1 0-12h7.936a6 6 0 0 1 0 12z"/><path d="m126.917 174.279h-7.936a6 6 0 0 1 0-12h7.936a6 6 0 1 1 0 12z"/><path d="m154.738 174.279h-7.938a6 6 0 0 1 0-12h7.936a6 6 0 0 1 0 12z"/><path d="m126.917 199.059h-7.936a6 6 0 1 1 0-12h7.936a6 6 0 0 1 0 12z"/><path d="m154.738 199.059h-7.938a6 6 0 0 1 0-12h7.936a6 6 0 0 1 0 12z"/></g><path d="m246.058 116.385h-7.936a6 6 0 0 1 0-12h7.936a6 6 0 0 1 0 12z" fill="#7bb5bf"/><path d="m273.878 116.385h-7.936a6 6 0 0 1 0-12h7.936a6 6 0 0 1 0 12z" fill="#7bb5bf"/><path d="m246.058 141.165h-7.936a6 6 0 0 1 0-12h7.936a6 6 0 0 1 0 12z" fill="#7bb5bf"/><path d="m273.878 141.165h-7.936a6 6 0 0 1 0-12h7.936a6 6 0 0 1 0 12z" fill="#7bb5bf"/><path d="m246.058 174.279h-7.936a6 6 0 0 1 0-12h7.936a6 6 0 0 1 0 12z" fill="#7bb5bf"/><path d="m273.878 174.279h-7.936a6 6 0 0 1 0-12h7.936a6 6 0 0 1 0 12z" fill="#7bb5bf"/><path d="m246.058 199.059h-7.936a6 6 0 0 1 0-12h7.936a6 6 0 0 1 0 12z" fill="#7bb5bf"/><path d="m273.878 199.059h-7.936a6 6 0 0 1 0-12h7.936a6 6 0 0 1 0 12z" fill="#7bb5bf"/><path d="m365.2 116.385h-7.936a6 6 0 0 1 0-12h7.936a6 6 0 0 1 0 12z" fill="#c4a97a"/><path d="m393.019 116.385h-7.936a6 6 0 0 1 0-12h7.936a6 6 0 0 1 0 12z" fill="#c4a97a"/><path d="m365.2 141.165h-7.936a6 6 0 0 1 0-12h7.936a6 6 0 0 1 0 12z" fill="#c4a97a"/><path d="m393.019 141.165h-7.936a6 6 0 0 1 0-12h7.936a6 6 0 0 1 0 12z" fill="#c4a97a"/><path d="m365.2 174.279h-7.936a6 6 0 1 1 0-12h7.936a6 6 0 0 1 0 12z" fill="#c4a97a"/><path d="m393.019 174.279h-7.936a6 6 0 0 1 0-12h7.936a6 6 0 0 1 0 12z" fill="#c4a97a"/><path d="m365.2 199.059h-7.936a6 6 0 0 1 0-12h7.936a6 6 0 0 1 0 12z" fill="#c4a97a"/><path d="m393.019 199.059h-7.936a6 6 0 0 1 0-12h7.936a6 6 0 0 1 0 12z" fill="#c4a97a"/><path d="m80.682 396h-6.409a6 6 0 0 1 0-12h6.409a6 6 0 1 1 0 12z" fill="#fff"/><path d="m212.151 396h-111.469a6 6 0 0 1 0-12h111.469a6 6 0 1 1 0 12z" fill="#fff"/></svg>