<svg id="Layer_1" height="512" viewBox="0 0 512 512" width="512" xmlns="http://www.w3.org/2000/svg" data-name="Layer 1"><path d="m488.9 378.2a22.646 22.646 0 0 0 -16.04-6.64h-433.72a22.685 22.685 0 0 0 0 45.37h433.72a22.691 22.691 0 0 0 16.04-38.73z" fill="#5a5a77"/><path d="m148.01 324.62c51.45 0 91.76 30.84 91.76 70.21s-40.31 70.21-91.76 70.21-91.77-30.84-91.77-70.21 40.31-70.21 91.77-70.21z" fill="#6d6d93"/><ellipse cx="363.53" cy="394.83" fill="#6d6d93" rx="91.76" ry="70.21"/><path d="m466.37 248h-420.7c-.12 3-.67 5.51-.67 8.48v44.52h422v-44.52c0-2.97-.51-5.48-.63-8.48z" fill="#4689d3"/><ellipse cx="363.53" cy="394.83" fill="#92e7f4" rx="63.6" ry="42.05"/><path d="m148.01 352.78c35.06 0 63.59 18.86 63.59 42.05s-28.53 42.05-63.59 42.05-63.6-18.87-63.6-42.05 28.53-42.05 63.6-42.05z" fill="#92e7f4"/><path d="m466.37 248.61h-92.81a93.538 93.538 0 0 1 56.58-108.86l.29-.2a209.4 209.4 0 0 1 35.94 109.06z" fill="#5fa8ed"/><path d="m113.67 160.64a93.387 93.387 0 0 1 24.77 87.97h-92.77a209.4 209.4 0 0 1 35.88-108.98 93.209 93.209 0 0 1 32.12 21.01z" fill="#5fa8ed"/><path d="m430.43 139.55-.29.2a93.538 93.538 0 0 0 -56.58 108.86h-235.12a93.533 93.533 0 0 0 -56.89-108.98 210.585 210.585 0 0 1 348.88-.08z" fill="#49bdff"/><path d="m75.626 248.61h-29.956c.008-.2.022-.406.031-.61h-.031c-.12 3-.67 5.51-.67 8.48v44.52h30v-44.52c0-2.762.463-5.14.626-7.87z" fill="#3e7eb7"/><path d="m75.626 248.61c.013-.206.035-.4.044-.61h.03a209.3 209.3 0 0 1 28.071-95.963 92.922 92.922 0 0 0 -22.221-12.407 209.385 209.385 0 0 0 -35.85 108.37c-.009.2-.023.406-.031.61z" fill="#549ad3"/><path d="m111.55 139.63a210.364 210.364 0 0 1 159.517-92.13c-4.971-.351-9.986-.541-15.047-.541a210.315 210.315 0 0 0 -174.47 92.671 92.922 92.922 0 0 1 22.222 12.407q3.679-6.345 7.778-12.407z" fill="#48b5e5"/><path d="m329.93 394.83c0-19.773 20.748-36.388 48.6-40.858a94.636 94.636 0 0 0 -15-1.192c-35.07 0-63.6 18.86-63.6 42.05s28.53 42.05 63.6 42.05a94.754 94.754 0 0 0 15-1.192c-27.852-4.472-48.6-21.088-48.6-40.858z" fill="#79cfd8"/><path d="m114.41 394.83c0-19.773 20.747-36.387 48.6-40.858a94.719 94.719 0 0 0 -15-1.192c-35.07 0-63.6 18.86-63.6 42.05s28.53 42.05 63.6 42.05a94.6 94.6 0 0 0 15-1.193c-27.853-4.472-48.6-21.093-48.6-40.857z" fill="#79cfd8"/><g fill="#f4f8fc"><path d="m137.541 116.942a6 6 0 0 1 -3.781-10.662c3.485-2.823 7.118-5.564 10.8-8.146a6 6 0 1 1 6.893 9.822c-3.456 2.425-6.866 5-10.137 7.648a5.973 5.973 0 0 1 -3.775 1.338z"/><path d="m169.556 95.982a6 6 0 0 1 -2.765-11.328 194.618 194.618 0 0 1 139.561-15.095 6 6 0 1 1 -3.107 11.591 182.465 182.465 0 0 0 -47.224-6.193 180.156 180.156 0 0 0 -83.709 20.352 5.976 5.976 0 0 1 -2.756.673z"/></g></svg>